<svg width="8" height="7" viewBox="0 0 8 7" fill="none" xmlns="http://www.w3.org/2000/svg">
<path fill-rule="evenodd" clip-rule="evenodd" d="M0 3.50063C0 3.36802 0.0526785 3.24085 0.146447 3.14708C0.240215 3.05331 0.367392 3.00063 0.5 3.00063H6.293L4.146 0.854632C4.05211 0.760745 3.99937 0.633408 3.99937 0.500632C3.99937 0.367856 4.05211 0.240518 4.146 0.146632C4.23989 0.0527451 4.36722 0 4.5 0C4.63278 0 4.76011 0.0527451 4.854 0.146632L7.854 3.14663C7.90056 3.19308 7.93751 3.24825 7.96271 3.309C7.98792 3.36974 8.00089 3.43486 8.00089 3.50063C8.00089 3.5664 7.98792 3.63152 7.96271 3.69227C7.93751 3.75301 7.90056 3.80819 7.854 3.85463L4.854 6.85463C4.76011 6.94852 4.63278 7.00126 4.5 7.00126C4.36722 7.00126 4.23989 6.94852 4.146 6.85463C4.05211 6.76075 3.99937 6.63341 3.99937 6.50063C3.99937 6.36786 4.05211 6.24052 4.146 6.14663L6.293 4.00063H0.5C0.367392 4.00063 0.240215 3.94795 0.146447 3.85419C0.0526785 3.76042 0 3.63324 0 3.50063Z" fill="#383552"/>
</svg>
