<svg width="18" height="19" viewBox="0 0 18 19" fill="none" xmlns="http://www.w3.org/2000/svg">
<g clip-path="url(#clip0_143_1244)">
<path d="M17.7188 9.47656C17.7188 14.2929 13.8149 18.1953 9 18.1953C4.18511 18.1953 0.28125 14.2929 0.28125 9.47656C0.28125 4.66307 4.18511 0.757812 9 0.757812C13.8149 0.757812 17.7188 4.66307 17.7188 9.47656ZM9.23396 3.64062C7.31805 3.64062 6.09609 4.44771 5.13654 5.88212C5.01223 6.06795 5.05382 6.31858 5.23199 6.45369L6.45188 7.37865C6.63486 7.51741 6.89558 7.4844 7.03775 7.30405C7.66579 6.50748 8.09641 6.04556 9.05231 6.04556C9.77052 6.04556 10.6589 6.50779 10.6589 7.20424C10.6589 7.73074 10.2242 8.00113 9.51511 8.39871C8.68809 8.86231 7.59375 9.43933 7.59375 10.8828V11.0234C7.59375 11.2564 7.78264 11.4453 8.01562 11.4453H9.98438C10.2174 11.4453 10.4062 11.2564 10.4062 11.0234V10.9766C10.4062 9.97596 13.3308 9.9343 13.3308 7.22656C13.3308 5.18743 11.2156 3.64062 9.23396 3.64062ZM9 12.3594C8.10826 12.3594 7.38281 13.0848 7.38281 13.9766C7.38281 14.8683 8.10826 15.5938 9 15.5938C9.89174 15.5938 10.6172 14.8683 10.6172 13.9766C10.6172 13.0848 9.89174 12.3594 9 12.3594Z" fill="#3B3856"/>
</g>
<defs>
<clipPath id="clip0_143_1244">
<rect width="18" height="18" fill="white" transform="translate(0 0.476562)"/>
</clipPath>
</defs>
</svg>
