<svg width="30" height="31" viewBox="0 0 30 31" fill="none" xmlns="http://www.w3.org/2000/svg">
<g clip-path="url(#clip0_143_1591)">
<path d="M30 15.4766C30 19.4548 28.4196 23.2701 25.6066 26.0832C22.7936 28.8962 18.9782 30.4766 15 30.4766C11.0218 30.4766 7.20644 28.8962 4.3934 26.0832C1.58035 23.2701 0 19.4548 0 15.4766C0 11.4983 1.58035 7.68301 4.3934 4.86996C7.20644 2.05692 11.0218 0.476563 15 0.476562C18.9782 0.476563 22.7936 2.05692 25.6066 4.86996C28.4196 7.68301 30 11.4983 30 15.4766ZM15 7.97656C14.763 7.9767 14.5287 8.02647 14.3121 8.12268C14.0955 8.21888 13.9015 8.35939 13.7425 8.53515C13.5835 8.7109 13.4631 8.91801 13.3891 9.14312C13.315 9.36824 13.2889 9.60637 13.3125 9.84219L13.9688 16.4178C13.9908 16.6761 14.109 16.9168 14.3 17.0921C14.4909 17.2675 14.7407 17.3648 15 17.3648C15.2593 17.3648 15.5091 17.2675 15.7 17.0921C15.891 16.9168 16.0092 16.6761 16.0312 16.4178L16.6875 9.84219C16.7111 9.60637 16.685 9.36824 16.6109 9.14312C16.5369 8.91801 16.4165 8.7109 16.2575 8.53515C16.0985 8.35939 15.9045 8.21888 15.6879 8.12268C15.4713 8.02647 15.237 7.9767 15 7.97656ZM15.0037 19.2266C14.5065 19.2266 14.0296 19.4241 13.6779 19.7757C13.3263 20.1274 13.1287 20.6043 13.1287 21.1016C13.1287 21.5988 13.3263 22.0758 13.6779 22.4274C14.0296 22.779 14.5065 22.9766 15.0037 22.9766C15.501 22.9766 15.9779 22.779 16.3296 22.4274C16.6812 22.0758 16.8787 21.5988 16.8787 21.1016C16.8787 20.6043 16.6812 20.1274 16.3296 19.7757C15.9779 19.4241 15.501 19.2266 15.0037 19.2266Z" fill="#D0D0D0"/>
</g>
<defs>
<clipPath id="clip0_143_1591">
<rect width="30" height="30" fill="white" transform="translate(0 0.476562)"/>
</clipPath>
</defs>
</svg>
