<svg width="28" height="28" viewBox="0 0 28 28" fill="none" xmlns="http://www.w3.org/2000/svg">
<g clip-path="url(#clip0_138_3289)">
<path d="M14 0C6.26801 0 0 6.26801 0 14C0 21.732 6.26801 28 14 28C21.732 28 28 21.732 28 14C28 6.26801 21.732 0 14 0ZM17.0984 8.01507C18.762 7.98908 20.2664 8.89348 20.9796 10.4353C21.6393 12.4736 21.0872 14.5472 19.9237 16.1099C19.1558 17.1697 18.238 18.0836 17.2996 18.8821C16.4364 19.6857 14.5041 21.2759 13.992 21.32C13.5394 21.2335 13.0313 20.7209 12.672 20.4575C10.6529 18.9226 8.47975 17.0568 7.37767 15.016C6.45365 13.0567 6.45197 10.6325 7.89007 9.13033C9.7548 7.44921 12.5658 7.77826 13.992 9.53458C14.375 9.0377 14.8461 8.64638 15.4051 8.36169C15.9716 8.13559 16.5439 8.02375 17.0984 8.01507Z" fill="#201F2E" fill-opacity="0.1"/>
</g>
<defs>
<clipPath id="clip0_138_3289">
<rect width="28" height="28" fill="white"/>
</clipPath>
</defs>
</svg>
