<svg width="326" height="3" viewBox="0 0 326 3" fill="none" xmlns="http://www.w3.org/2000/svg">
<path d="M0.265625 1.61523C0.265625 1.33984 0.350586 1.1084 0.520508 0.920898C0.696289 0.727539 0.948242 0.630859 1.27637 0.630859C1.60449 0.630859 1.85352 0.727539 2.02344 0.920898C2.19922 1.1084 2.28711 1.33984 2.28711 1.61523C2.28711 1.88477 2.19922 2.11328 2.02344 2.30078C1.85352 2.48828 1.60449 2.58203 1.27637 2.58203C0.948242 2.58203 0.696289 2.48828 0.520508 2.30078C0.350586 2.11328 0.265625 1.88477 0.265625 1.61523ZM5.01172 1.61523C5.01172 1.33984 5.09668 1.1084 5.2666 0.920898C5.44238 0.727539 5.69434 0.630859 6.02246 0.630859C6.35059 0.630859 6.59961 0.727539 6.76953 0.920898C6.94531 1.1084 7.0332 1.33984 7.0332 1.61523C7.0332 1.88477 6.94531 2.11328 6.76953 2.30078C6.59961 2.48828 6.35059 2.58203 6.02246 2.58203C5.69434 2.58203 5.44238 2.48828 5.2666 2.30078C5.09668 2.11328 5.01172 1.88477 5.01172 1.61523ZM9.75781 1.61523C9.75781 1.33984 9.84277 1.1084 10.0127 0.920898C10.1885 0.727539 10.4404 0.630859 10.7686 0.630859C11.0967 0.630859 11.3457 0.727539 11.5156 0.920898C11.6914 1.1084 11.7793 1.33984 11.7793 1.61523C11.7793 1.88477 11.6914 2.11328 11.5156 2.30078C11.3457 2.48828 11.0967 2.58203 10.7686 2.58203C10.4404 2.58203 10.1885 2.48828 10.0127 2.30078C9.84277 2.11328 9.75781 1.88477 9.75781 1.61523ZM14.5039 1.61523C14.5039 1.33984 14.5889 1.1084 14.7588 0.920898C14.9346 0.727539 15.1865 0.630859 15.5146 0.630859C15.8428 0.630859 16.0918 0.727539 16.2617 0.920898C16.4375 1.1084 16.5254 1.33984 16.5254 1.61523C16.5254 1.88477 16.4375 2.11328 16.2617 2.30078C16.0918 2.48828 15.8428 2.58203 15.5146 2.58203C15.1865 2.58203 14.9346 2.48828 14.7588 2.30078C14.5889 2.11328 14.5039 1.88477 14.5039 1.61523ZM19.25 1.61523C19.25 1.33984 19.335 1.1084 19.5049 0.920898C19.6807 0.727539 19.9326 0.630859 20.2607 0.630859C20.5889 0.630859 20.8379 0.727539 21.0078 0.920898C21.1836 1.1084 21.2715 1.33984 21.2715 1.61523C21.2715 1.88477 21.1836 2.11328 21.0078 2.30078C20.8379 2.48828 20.5889 2.58203 20.2607 2.58203C19.9326 2.58203 19.6807 2.48828 19.5049 2.30078C19.335 2.11328 19.25 1.88477 19.25 1.61523ZM23.9961 1.61523C23.9961 1.33984 24.0811 1.1084 24.251 0.920898C24.4268 0.727539 24.6787 0.630859 25.0068 0.630859C25.335 0.630859 25.584 0.727539 25.7539 0.920898C25.9297 1.1084 26.0176 1.33984 26.0176 1.61523C26.0176 1.88477 25.9297 2.11328 25.7539 2.30078C25.584 2.48828 25.335 2.58203 25.0068 2.58203C24.6787 2.58203 24.4268 2.48828 24.251 2.30078C24.0811 2.11328 23.9961 1.88477 23.9961 1.61523ZM28.7422 1.61523C28.7422 1.33984 28.8271 1.1084 28.9971 0.920898C29.1729 0.727539 29.4248 0.630859 29.7529 0.630859C30.0811 0.630859 30.3301 0.727539 30.5 0.920898C30.6758 1.1084 30.7637 1.33984 30.7637 1.61523C30.7637 1.88477 30.6758 2.11328 30.5 2.30078C30.3301 2.48828 30.0811 2.58203 29.7529 2.58203C29.4248 2.58203 29.1729 2.48828 28.9971 2.30078C28.8271 2.11328 28.7422 1.88477 28.7422 1.61523ZM33.4883 1.61523C33.4883 1.33984 33.5732 1.1084 33.7432 0.920898C33.9189 0.727539 34.1709 0.630859 34.499 0.630859C34.8271 0.630859 35.0762 0.727539 35.2461 0.920898C35.4219 1.1084 35.5098 1.33984 35.5098 1.61523C35.5098 1.88477 35.4219 2.11328 35.2461 2.30078C35.0762 2.48828 34.8271 2.58203 34.499 2.58203C34.1709 2.58203 33.9189 2.48828 33.7432 2.30078C33.5732 2.11328 33.4883 1.88477 33.4883 1.61523ZM38.2344 1.61523C38.2344 1.33984 38.3193 1.1084 38.4893 0.920898C38.665 0.727539 38.917 0.630859 39.2451 0.630859C39.5732 0.630859 39.8223 0.727539 39.9922 0.920898C40.168 1.1084 40.2559 1.33984 40.2559 1.61523C40.2559 1.88477 40.168 2.11328 39.9922 2.30078C39.8223 2.48828 39.5732 2.58203 39.2451 2.58203C38.917 2.58203 38.665 2.48828 38.4893 2.30078C38.3193 2.11328 38.2344 1.88477 38.2344 1.61523ZM42.9805 1.61523C42.9805 1.33984 43.0654 1.1084 43.2354 0.920898C43.4111 0.727539 43.6631 0.630859 43.9912 0.630859C44.3193 0.630859 44.5684 0.727539 44.7383 0.920898C44.9141 1.1084 45.002 1.33984 45.002 1.61523C45.002 1.88477 44.9141 2.11328 44.7383 2.30078C44.5684 2.48828 44.3193 2.58203 43.9912 2.58203C43.6631 2.58203 43.4111 2.48828 43.2354 2.30078C43.0654 2.11328 42.9805 1.88477 42.9805 1.61523ZM47.7266 1.61523C47.7266 1.33984 47.8115 1.1084 47.9814 0.920898C48.1572 0.727539 48.4092 0.630859 48.7373 0.630859C49.0654 0.630859 49.3145 0.727539 49.4844 0.920898C49.6602 1.1084 49.748 1.33984 49.748 1.61523C49.748 1.88477 49.6602 2.11328 49.4844 2.30078C49.3145 2.48828 49.0654 2.58203 48.7373 2.58203C48.4092 2.58203 48.1572 2.48828 47.9814 2.30078C47.8115 2.11328 47.7266 1.88477 47.7266 1.61523ZM52.4727 1.61523C52.4727 1.33984 52.5576 1.1084 52.7275 0.920898C52.9033 0.727539 53.1553 0.630859 53.4834 0.630859C53.8115 0.630859 54.0605 0.727539 54.2305 0.920898C54.4062 1.1084 54.4941 1.33984 54.4941 1.61523C54.4941 1.88477 54.4062 2.11328 54.2305 2.30078C54.0605 2.48828 53.8115 2.58203 53.4834 2.58203C53.1553 2.58203 52.9033 2.48828 52.7275 2.30078C52.5576 2.11328 52.4727 1.88477 52.4727 1.61523ZM57.2188 1.61523C57.2188 1.33984 57.3037 1.1084 57.4736 0.920898C57.6494 0.727539 57.9014 0.630859 58.2295 0.630859C58.5576 0.630859 58.8066 0.727539 58.9766 0.920898C59.1523 1.1084 59.2402 1.33984 59.2402 1.61523C59.2402 1.88477 59.1523 2.11328 58.9766 2.30078C58.8066 2.48828 58.5576 2.58203 58.2295 2.58203C57.9014 2.58203 57.6494 2.48828 57.4736 2.30078C57.3037 2.11328 57.2188 1.88477 57.2188 1.61523ZM61.9648 1.61523C61.9648 1.33984 62.0498 1.1084 62.2197 0.920898C62.3955 0.727539 62.6475 0.630859 62.9756 0.630859C63.3037 0.630859 63.5527 0.727539 63.7227 0.920898C63.8984 1.1084 63.9863 1.33984 63.9863 1.61523C63.9863 1.88477 63.8984 2.11328 63.7227 2.30078C63.5527 2.48828 63.3037 2.58203 62.9756 2.58203C62.6475 2.58203 62.3955 2.48828 62.2197 2.30078C62.0498 2.11328 61.9648 1.88477 61.9648 1.61523ZM66.7109 1.61523C66.7109 1.33984 66.7959 1.1084 66.9658 0.920898C67.1416 0.727539 67.3936 0.630859 67.7217 0.630859C68.0498 0.630859 68.2988 0.727539 68.4688 0.920898C68.6445 1.1084 68.7324 1.33984 68.7324 1.61523C68.7324 1.88477 68.6445 2.11328 68.4688 2.30078C68.2988 2.48828 68.0498 2.58203 67.7217 2.58203C67.3936 2.58203 67.1416 2.48828 66.9658 2.30078C66.7959 2.11328 66.7109 1.88477 66.7109 1.61523ZM71.457 1.61523C71.457 1.33984 71.542 1.1084 71.7119 0.920898C71.8877 0.727539 72.1396 0.630859 72.4678 0.630859C72.7959 0.630859 73.0449 0.727539 73.2148 0.920898C73.3906 1.1084 73.4785 1.33984 73.4785 1.61523C73.4785 1.88477 73.3906 2.11328 73.2148 2.30078C73.0449 2.48828 72.7959 2.58203 72.4678 2.58203C72.1396 2.58203 71.8877 2.48828 71.7119 2.30078C71.542 2.11328 71.457 1.88477 71.457 1.61523ZM76.2031 1.61523C76.2031 1.33984 76.2881 1.1084 76.458 0.920898C76.6338 0.727539 76.8857 0.630859 77.2139 0.630859C77.542 0.630859 77.791 0.727539 77.9609 0.920898C78.1367 1.1084 78.2246 1.33984 78.2246 1.61523C78.2246 1.88477 78.1367 2.11328 77.9609 2.30078C77.791 2.48828 77.542 2.58203 77.2139 2.58203C76.8857 2.58203 76.6338 2.48828 76.458 2.30078C76.2881 2.11328 76.2031 1.88477 76.2031 1.61523ZM80.9492 1.61523C80.9492 1.33984 81.0342 1.1084 81.2041 0.920898C81.3799 0.727539 81.6318 0.630859 81.96 0.630859C82.2881 0.630859 82.5371 0.727539 82.707 0.920898C82.8828 1.1084 82.9707 1.33984 82.9707 1.61523C82.9707 1.88477 82.8828 2.11328 82.707 2.30078C82.5371 2.48828 82.2881 2.58203 81.96 2.58203C81.6318 2.58203 81.3799 2.48828 81.2041 2.30078C81.0342 2.11328 80.9492 1.88477 80.9492 1.61523ZM85.6953 1.61523C85.6953 1.33984 85.7803 1.1084 85.9502 0.920898C86.126 0.727539 86.3779 0.630859 86.7061 0.630859C87.0342 0.630859 87.2832 0.727539 87.4531 0.920898C87.6289 1.1084 87.7168 1.33984 87.7168 1.61523C87.7168 1.88477 87.6289 2.11328 87.4531 2.30078C87.2832 2.48828 87.0342 2.58203 86.7061 2.58203C86.3779 2.58203 86.126 2.48828 85.9502 2.30078C85.7803 2.11328 85.6953 1.88477 85.6953 1.61523ZM90.4414 1.61523C90.4414 1.33984 90.5264 1.1084 90.6963 0.920898C90.8721 0.727539 91.124 0.630859 91.4521 0.630859C91.7803 0.630859 92.0293 0.727539 92.1992 0.920898C92.375 1.1084 92.4629 1.33984 92.4629 1.61523C92.4629 1.88477 92.375 2.11328 92.1992 2.30078C92.0293 2.48828 91.7803 2.58203 91.4521 2.58203C91.124 2.58203 90.8721 2.48828 90.6963 2.30078C90.5264 2.11328 90.4414 1.88477 90.4414 1.61523ZM95.1875 1.61523C95.1875 1.33984 95.2725 1.1084 95.4424 0.920898C95.6182 0.727539 95.8701 0.630859 96.1982 0.630859C96.5264 0.630859 96.7754 0.727539 96.9453 0.920898C97.1211 1.1084 97.209 1.33984 97.209 1.61523C97.209 1.88477 97.1211 2.11328 96.9453 2.30078C96.7754 2.48828 96.5264 2.58203 96.1982 2.58203C95.8701 2.58203 95.6182 2.48828 95.4424 2.30078C95.2725 2.11328 95.1875 1.88477 95.1875 1.61523ZM99.9336 1.61523C99.9336 1.33984 100.019 1.1084 100.188 0.920898C100.364 0.727539 100.616 0.630859 100.944 0.630859C101.272 0.630859 101.521 0.727539 101.691 0.920898C101.867 1.1084 101.955 1.33984 101.955 1.61523C101.955 1.88477 101.867 2.11328 101.691 2.30078C101.521 2.48828 101.272 2.58203 100.944 2.58203C100.616 2.58203 100.364 2.48828 100.188 2.30078C100.019 2.11328 99.9336 1.88477 99.9336 1.61523ZM104.68 1.61523C104.68 1.33984 104.765 1.1084 104.935 0.920898C105.11 0.727539 105.362 0.630859 105.69 0.630859C106.019 0.630859 106.268 0.727539 106.438 0.920898C106.613 1.1084 106.701 1.33984 106.701 1.61523C106.701 1.88477 106.613 2.11328 106.438 2.30078C106.268 2.48828 106.019 2.58203 105.69 2.58203C105.362 2.58203 105.11 2.48828 104.935 2.30078C104.765 2.11328 104.68 1.88477 104.68 1.61523ZM109.426 1.61523C109.426 1.33984 109.511 1.1084 109.681 0.920898C109.856 0.727539 110.108 0.630859 110.437 0.630859C110.765 0.630859 111.014 0.727539 111.184 0.920898C111.359 1.1084 111.447 1.33984 111.447 1.61523C111.447 1.88477 111.359 2.11328 111.184 2.30078C111.014 2.48828 110.765 2.58203 110.437 2.58203C110.108 2.58203 109.856 2.48828 109.681 2.30078C109.511 2.11328 109.426 1.88477 109.426 1.61523ZM114.172 1.61523C114.172 1.33984 114.257 1.1084 114.427 0.920898C114.603 0.727539 114.854 0.630859 115.183 0.630859C115.511 0.630859 115.76 0.727539 115.93 0.920898C116.105 1.1084 116.193 1.33984 116.193 1.61523C116.193 1.88477 116.105 2.11328 115.93 2.30078C115.76 2.48828 115.511 2.58203 115.183 2.58203C114.854 2.58203 114.603 2.48828 114.427 2.30078C114.257 2.11328 114.172 1.88477 114.172 1.61523ZM118.918 1.61523C118.918 1.33984 119.003 1.1084 119.173 0.920898C119.349 0.727539 119.601 0.630859 119.929 0.630859C120.257 0.630859 120.506 0.727539 120.676 0.920898C120.852 1.1084 120.939 1.33984 120.939 1.61523C120.939 1.88477 120.852 2.11328 120.676 2.30078C120.506 2.48828 120.257 2.58203 119.929 2.58203C119.601 2.58203 119.349 2.48828 119.173 2.30078C119.003 2.11328 118.918 1.88477 118.918 1.61523ZM123.664 1.61523C123.664 1.33984 123.749 1.1084 123.919 0.920898C124.095 0.727539 124.347 0.630859 124.675 0.630859C125.003 0.630859 125.252 0.727539 125.422 0.920898C125.598 1.1084 125.686 1.33984 125.686 1.61523C125.686 1.88477 125.598 2.11328 125.422 2.30078C125.252 2.48828 125.003 2.58203 124.675 2.58203C124.347 2.58203 124.095 2.48828 123.919 2.30078C123.749 2.11328 123.664 1.88477 123.664 1.61523ZM128.41 1.61523C128.41 1.33984 128.495 1.1084 128.665 0.920898C128.841 0.727539 129.093 0.630859 129.421 0.630859C129.749 0.630859 129.998 0.727539 130.168 0.920898C130.344 1.1084 130.432 1.33984 130.432 1.61523C130.432 1.88477 130.344 2.11328 130.168 2.30078C129.998 2.48828 129.749 2.58203 129.421 2.58203C129.093 2.58203 128.841 2.48828 128.665 2.30078C128.495 2.11328 128.41 1.88477 128.41 1.61523ZM133.156 1.61523C133.156 1.33984 133.241 1.1084 133.411 0.920898C133.587 0.727539 133.839 0.630859 134.167 0.630859C134.495 0.630859 134.744 0.727539 134.914 0.920898C135.09 1.1084 135.178 1.33984 135.178 1.61523C135.178 1.88477 135.09 2.11328 134.914 2.30078C134.744 2.48828 134.495 2.58203 134.167 2.58203C133.839 2.58203 133.587 2.48828 133.411 2.30078C133.241 2.11328 133.156 1.88477 133.156 1.61523ZM137.902 1.61523C137.902 1.33984 137.987 1.1084 138.157 0.920898C138.333 0.727539 138.585 0.630859 138.913 0.630859C139.241 0.630859 139.49 0.727539 139.66 0.920898C139.836 1.1084 139.924 1.33984 139.924 1.61523C139.924 1.88477 139.836 2.11328 139.66 2.30078C139.49 2.48828 139.241 2.58203 138.913 2.58203C138.585 2.58203 138.333 2.48828 138.157 2.30078C137.987 2.11328 137.902 1.88477 137.902 1.61523ZM142.648 1.61523C142.648 1.33984 142.733 1.1084 142.903 0.920898C143.079 0.727539 143.331 0.630859 143.659 0.630859C143.987 0.630859 144.236 0.727539 144.406 0.920898C144.582 1.1084 144.67 1.33984 144.67 1.61523C144.67 1.88477 144.582 2.11328 144.406 2.30078C144.236 2.48828 143.987 2.58203 143.659 2.58203C143.331 2.58203 143.079 2.48828 142.903 2.30078C142.733 2.11328 142.648 1.88477 142.648 1.61523ZM147.395 1.61523C147.395 1.33984 147.479 1.1084 147.649 0.920898C147.825 0.727539 148.077 0.630859 148.405 0.630859C148.733 0.630859 148.982 0.727539 149.152 0.920898C149.328 1.1084 149.416 1.33984 149.416 1.61523C149.416 1.88477 149.328 2.11328 149.152 2.30078C148.982 2.48828 148.733 2.58203 148.405 2.58203C148.077 2.58203 147.825 2.48828 147.649 2.30078C147.479 2.11328 147.395 1.88477 147.395 1.61523ZM152.141 1.61523C152.141 1.33984 152.226 1.1084 152.396 0.920898C152.571 0.727539 152.823 0.630859 153.151 0.630859C153.479 0.630859 153.729 0.727539 153.898 0.920898C154.074 1.1084 154.162 1.33984 154.162 1.61523C154.162 1.88477 154.074 2.11328 153.898 2.30078C153.729 2.48828 153.479 2.58203 153.151 2.58203C152.823 2.58203 152.571 2.48828 152.396 2.30078C152.226 2.11328 152.141 1.88477 152.141 1.61523ZM156.887 1.61523C156.887 1.33984 156.972 1.1084 157.142 0.920898C157.317 0.727539 157.569 0.630859 157.897 0.630859C158.226 0.630859 158.475 0.727539 158.645 0.920898C158.82 1.1084 158.908 1.33984 158.908 1.61523C158.908 1.88477 158.82 2.11328 158.645 2.30078C158.475 2.48828 158.226 2.58203 157.897 2.58203C157.569 2.58203 157.317 2.48828 157.142 2.30078C156.972 2.11328 156.887 1.88477 156.887 1.61523ZM161.633 1.61523C161.633 1.33984 161.718 1.1084 161.888 0.920898C162.063 0.727539 162.315 0.630859 162.644 0.630859C162.972 0.630859 163.221 0.727539 163.391 0.920898C163.566 1.1084 163.654 1.33984 163.654 1.61523C163.654 1.88477 163.566 2.11328 163.391 2.30078C163.221 2.48828 162.972 2.58203 162.644 2.58203C162.315 2.58203 162.063 2.48828 161.888 2.30078C161.718 2.11328 161.633 1.88477 161.633 1.61523ZM166.379 1.61523C166.379 1.33984 166.464 1.1084 166.634 0.920898C166.81 0.727539 167.062 0.630859 167.39 0.630859C167.718 0.630859 167.967 0.727539 168.137 0.920898C168.312 1.1084 168.4 1.33984 168.4 1.61523C168.4 1.88477 168.312 2.11328 168.137 2.30078C167.967 2.48828 167.718 2.58203 167.39 2.58203C167.062 2.58203 166.81 2.48828 166.634 2.30078C166.464 2.11328 166.379 1.88477 166.379 1.61523ZM171.125 1.61523C171.125 1.33984 171.21 1.1084 171.38 0.920898C171.556 0.727539 171.808 0.630859 172.136 0.630859C172.464 0.630859 172.713 0.727539 172.883 0.920898C173.059 1.1084 173.146 1.33984 173.146 1.61523C173.146 1.88477 173.059 2.11328 172.883 2.30078C172.713 2.48828 172.464 2.58203 172.136 2.58203C171.808 2.58203 171.556 2.48828 171.38 2.30078C171.21 2.11328 171.125 1.88477 171.125 1.61523ZM175.871 1.61523C175.871 1.33984 175.956 1.1084 176.126 0.920898C176.302 0.727539 176.554 0.630859 176.882 0.630859C177.21 0.630859 177.459 0.727539 177.629 0.920898C177.805 1.1084 177.893 1.33984 177.893 1.61523C177.893 1.88477 177.805 2.11328 177.629 2.30078C177.459 2.48828 177.21 2.58203 176.882 2.58203C176.554 2.58203 176.302 2.48828 176.126 2.30078C175.956 2.11328 175.871 1.88477 175.871 1.61523ZM180.617 1.61523C180.617 1.33984 180.702 1.1084 180.872 0.920898C181.048 0.727539 181.3 0.630859 181.628 0.630859C181.956 0.630859 182.205 0.727539 182.375 0.920898C182.551 1.1084 182.639 1.33984 182.639 1.61523C182.639 1.88477 182.551 2.11328 182.375 2.30078C182.205 2.48828 181.956 2.58203 181.628 2.58203C181.3 2.58203 181.048 2.48828 180.872 2.30078C180.702 2.11328 180.617 1.88477 180.617 1.61523ZM185.363 1.61523C185.363 1.33984 185.448 1.1084 185.618 0.920898C185.794 0.727539 186.046 0.630859 186.374 0.630859C186.702 0.630859 186.951 0.727539 187.121 0.920898C187.297 1.1084 187.385 1.33984 187.385 1.61523C187.385 1.88477 187.297 2.11328 187.121 2.30078C186.951 2.48828 186.702 2.58203 186.374 2.58203C186.046 2.58203 185.794 2.48828 185.618 2.30078C185.448 2.11328 185.363 1.88477 185.363 1.61523ZM190.109 1.61523C190.109 1.33984 190.194 1.1084 190.364 0.920898C190.54 0.727539 190.792 0.630859 191.12 0.630859C191.448 0.630859 191.697 0.727539 191.867 0.920898C192.043 1.1084 192.131 1.33984 192.131 1.61523C192.131 1.88477 192.043 2.11328 191.867 2.30078C191.697 2.48828 191.448 2.58203 191.12 2.58203C190.792 2.58203 190.54 2.48828 190.364 2.30078C190.194 2.11328 190.109 1.88477 190.109 1.61523ZM194.855 1.61523C194.855 1.33984 194.94 1.1084 195.11 0.920898C195.286 0.727539 195.538 0.630859 195.866 0.630859C196.194 0.630859 196.443 0.727539 196.613 0.920898C196.789 1.1084 196.877 1.33984 196.877 1.61523C196.877 1.88477 196.789 2.11328 196.613 2.30078C196.443 2.48828 196.194 2.58203 195.866 2.58203C195.538 2.58203 195.286 2.48828 195.11 2.30078C194.94 2.11328 194.855 1.88477 194.855 1.61523ZM199.602 1.61523C199.602 1.33984 199.687 1.1084 199.856 0.920898C200.032 0.727539 200.284 0.630859 200.612 0.630859C200.94 0.630859 201.189 0.727539 201.359 0.920898C201.535 1.1084 201.623 1.33984 201.623 1.61523C201.623 1.88477 201.535 2.11328 201.359 2.30078C201.189 2.48828 200.94 2.58203 200.612 2.58203C200.284 2.58203 200.032 2.48828 199.856 2.30078C199.687 2.11328 199.602 1.88477 199.602 1.61523ZM204.348 1.61523C204.348 1.33984 204.433 1.1084 204.603 0.920898C204.778 0.727539 205.03 0.630859 205.358 0.630859C205.687 0.630859 205.936 0.727539 206.105 0.920898C206.281 1.1084 206.369 1.33984 206.369 1.61523C206.369 1.88477 206.281 2.11328 206.105 2.30078C205.936 2.48828 205.687 2.58203 205.358 2.58203C205.03 2.58203 204.778 2.48828 204.603 2.30078C204.433 2.11328 204.348 1.88477 204.348 1.61523ZM209.094 1.61523C209.094 1.33984 209.179 1.1084 209.349 0.920898C209.524 0.727539 209.776 0.630859 210.104 0.630859C210.433 0.630859 210.682 0.727539 210.852 0.920898C211.027 1.1084 211.115 1.33984 211.115 1.61523C211.115 1.88477 211.027 2.11328 210.852 2.30078C210.682 2.48828 210.433 2.58203 210.104 2.58203C209.776 2.58203 209.524 2.48828 209.349 2.30078C209.179 2.11328 209.094 1.88477 209.094 1.61523ZM213.84 1.61523C213.84 1.33984 213.925 1.1084 214.095 0.920898C214.271 0.727539 214.522 0.630859 214.851 0.630859C215.179 0.630859 215.428 0.727539 215.598 0.920898C215.773 1.1084 215.861 1.33984 215.861 1.61523C215.861 1.88477 215.773 2.11328 215.598 2.30078C215.428 2.48828 215.179 2.58203 214.851 2.58203C214.522 2.58203 214.271 2.48828 214.095 2.30078C213.925 2.11328 213.84 1.88477 213.84 1.61523ZM218.586 1.61523C218.586 1.33984 218.671 1.1084 218.841 0.920898C219.017 0.727539 219.269 0.630859 219.597 0.630859C219.925 0.630859 220.174 0.727539 220.344 0.920898C220.52 1.1084 220.607 1.33984 220.607 1.61523C220.607 1.88477 220.52 2.11328 220.344 2.30078C220.174 2.48828 219.925 2.58203 219.597 2.58203C219.269 2.58203 219.017 2.48828 218.841 2.30078C218.671 2.11328 218.586 1.88477 218.586 1.61523ZM223.332 1.61523C223.332 1.33984 223.417 1.1084 223.587 0.920898C223.763 0.727539 224.015 0.630859 224.343 0.630859C224.671 0.630859 224.92 0.727539 225.09 0.920898C225.266 1.1084 225.354 1.33984 225.354 1.61523C225.354 1.88477 225.266 2.11328 225.09 2.30078C224.92 2.48828 224.671 2.58203 224.343 2.58203C224.015 2.58203 223.763 2.48828 223.587 2.30078C223.417 2.11328 223.332 1.88477 223.332 1.61523ZM228.078 1.61523C228.078 1.33984 228.163 1.1084 228.333 0.920898C228.509 0.727539 228.761 0.630859 229.089 0.630859C229.417 0.630859 229.666 0.727539 229.836 0.920898C230.012 1.1084 230.1 1.33984 230.1 1.61523C230.1 1.88477 230.012 2.11328 229.836 2.30078C229.666 2.48828 229.417 2.58203 229.089 2.58203C228.761 2.58203 228.509 2.48828 228.333 2.30078C228.163 2.11328 228.078 1.88477 228.078 1.61523ZM232.824 1.61523C232.824 1.33984 232.909 1.1084 233.079 0.920898C233.255 0.727539 233.507 0.630859 233.835 0.630859C234.163 0.630859 234.412 0.727539 234.582 0.920898C234.758 1.1084 234.846 1.33984 234.846 1.61523C234.846 1.88477 234.758 2.11328 234.582 2.30078C234.412 2.48828 234.163 2.58203 233.835 2.58203C233.507 2.58203 233.255 2.48828 233.079 2.30078C232.909 2.11328 232.824 1.88477 232.824 1.61523ZM237.57 1.61523C237.57 1.33984 237.655 1.1084 237.825 0.920898C238.001 0.727539 238.253 0.630859 238.581 0.630859C238.909 0.630859 239.158 0.727539 239.328 0.920898C239.504 1.1084 239.592 1.33984 239.592 1.61523C239.592 1.88477 239.504 2.11328 239.328 2.30078C239.158 2.48828 238.909 2.58203 238.581 2.58203C238.253 2.58203 238.001 2.48828 237.825 2.30078C237.655 2.11328 237.57 1.88477 237.57 1.61523ZM242.316 1.61523C242.316 1.33984 242.401 1.1084 242.571 0.920898C242.747 0.727539 242.999 0.630859 243.327 0.630859C243.655 0.630859 243.904 0.727539 244.074 0.920898C244.25 1.1084 244.338 1.33984 244.338 1.61523C244.338 1.88477 244.25 2.11328 244.074 2.30078C243.904 2.48828 243.655 2.58203 243.327 2.58203C242.999 2.58203 242.747 2.48828 242.571 2.30078C242.401 2.11328 242.316 1.88477 242.316 1.61523ZM247.062 1.61523C247.062 1.33984 247.147 1.1084 247.317 0.920898C247.493 0.727539 247.745 0.630859 248.073 0.630859C248.401 0.630859 248.65 0.727539 248.82 0.920898C248.996 1.1084 249.084 1.33984 249.084 1.61523C249.084 1.88477 248.996 2.11328 248.82 2.30078C248.65 2.48828 248.401 2.58203 248.073 2.58203C247.745 2.58203 247.493 2.48828 247.317 2.30078C247.147 2.11328 247.062 1.88477 247.062 1.61523ZM251.809 1.61523C251.809 1.33984 251.894 1.1084 252.063 0.920898C252.239 0.727539 252.491 0.630859 252.819 0.630859C253.147 0.630859 253.396 0.727539 253.566 0.920898C253.742 1.1084 253.83 1.33984 253.83 1.61523C253.83 1.88477 253.742 2.11328 253.566 2.30078C253.396 2.48828 253.147 2.58203 252.819 2.58203C252.491 2.58203 252.239 2.48828 252.063 2.30078C251.894 2.11328 251.809 1.88477 251.809 1.61523ZM256.555 1.61523C256.555 1.33984 256.64 1.1084 256.81 0.920898C256.985 0.727539 257.237 0.630859 257.565 0.630859C257.894 0.630859 258.143 0.727539 258.312 0.920898C258.488 1.1084 258.576 1.33984 258.576 1.61523C258.576 1.88477 258.488 2.11328 258.312 2.30078C258.143 2.48828 257.894 2.58203 257.565 2.58203C257.237 2.58203 256.985 2.48828 256.81 2.30078C256.64 2.11328 256.555 1.88477 256.555 1.61523ZM261.301 1.61523C261.301 1.33984 261.386 1.1084 261.556 0.920898C261.731 0.727539 261.983 0.630859 262.312 0.630859C262.64 0.630859 262.889 0.727539 263.059 0.920898C263.234 1.1084 263.322 1.33984 263.322 1.61523C263.322 1.88477 263.234 2.11328 263.059 2.30078C262.889 2.48828 262.64 2.58203 262.312 2.58203C261.983 2.58203 261.731 2.48828 261.556 2.30078C261.386 2.11328 261.301 1.88477 261.301 1.61523ZM266.047 1.61523C266.047 1.33984 266.132 1.1084 266.302 0.920898C266.478 0.727539 266.729 0.630859 267.058 0.630859C267.386 0.630859 267.635 0.727539 267.805 0.920898C267.98 1.1084 268.068 1.33984 268.068 1.61523C268.068 1.88477 267.98 2.11328 267.805 2.30078C267.635 2.48828 267.386 2.58203 267.058 2.58203C266.729 2.58203 266.478 2.48828 266.302 2.30078C266.132 2.11328 266.047 1.88477 266.047 1.61523ZM270.793 1.61523C270.793 1.33984 270.878 1.1084 271.048 0.920898C271.224 0.727539 271.476 0.630859 271.804 0.630859C272.132 0.630859 272.381 0.727539 272.551 0.920898C272.727 1.1084 272.814 1.33984 272.814 1.61523C272.814 1.88477 272.727 2.11328 272.551 2.30078C272.381 2.48828 272.132 2.58203 271.804 2.58203C271.476 2.58203 271.224 2.48828 271.048 2.30078C270.878 2.11328 270.793 1.88477 270.793 1.61523ZM275.539 1.61523C275.539 1.33984 275.624 1.1084 275.794 0.920898C275.97 0.727539 276.222 0.630859 276.55 0.630859C276.878 0.630859 277.127 0.727539 277.297 0.920898C277.473 1.1084 277.561 1.33984 277.561 1.61523C277.561 1.88477 277.473 2.11328 277.297 2.30078C277.127 2.48828 276.878 2.58203 276.55 2.58203C276.222 2.58203 275.97 2.48828 275.794 2.30078C275.624 2.11328 275.539 1.88477 275.539 1.61523ZM280.285 1.61523C280.285 1.33984 280.37 1.1084 280.54 0.920898C280.716 0.727539 280.968 0.630859 281.296 0.630859C281.624 0.630859 281.873 0.727539 282.043 0.920898C282.219 1.1084 282.307 1.33984 282.307 1.61523C282.307 1.88477 282.219 2.11328 282.043 2.30078C281.873 2.48828 281.624 2.58203 281.296 2.58203C280.968 2.58203 280.716 2.48828 280.54 2.30078C280.37 2.11328 280.285 1.88477 280.285 1.61523ZM285.031 1.61523C285.031 1.33984 285.116 1.1084 285.286 0.920898C285.462 0.727539 285.714 0.630859 286.042 0.630859C286.37 0.630859 286.619 0.727539 286.789 0.920898C286.965 1.1084 287.053 1.33984 287.053 1.61523C287.053 1.88477 286.965 2.11328 286.789 2.30078C286.619 2.48828 286.37 2.58203 286.042 2.58203C285.714 2.58203 285.462 2.48828 285.286 2.30078C285.116 2.11328 285.031 1.88477 285.031 1.61523ZM289.777 1.61523C289.777 1.33984 289.862 1.1084 290.032 0.920898C290.208 0.727539 290.46 0.630859 290.788 0.630859C291.116 0.630859 291.365 0.727539 291.535 0.920898C291.711 1.1084 291.799 1.33984 291.799 1.61523C291.799 1.88477 291.711 2.11328 291.535 2.30078C291.365 2.48828 291.116 2.58203 290.788 2.58203C290.46 2.58203 290.208 2.48828 290.032 2.30078C289.862 2.11328 289.777 1.88477 289.777 1.61523ZM294.523 1.61523C294.523 1.33984 294.608 1.1084 294.778 0.920898C294.954 0.727539 295.206 0.630859 295.534 0.630859C295.862 0.630859 296.111 0.727539 296.281 0.920898C296.457 1.1084 296.545 1.33984 296.545 1.61523C296.545 1.88477 296.457 2.11328 296.281 2.30078C296.111 2.48828 295.862 2.58203 295.534 2.58203C295.206 2.58203 294.954 2.48828 294.778 2.30078C294.608 2.11328 294.523 1.88477 294.523 1.61523ZM299.27 1.61523C299.27 1.33984 299.354 1.1084 299.524 0.920898C299.7 0.727539 299.952 0.630859 300.28 0.630859C300.608 0.630859 300.857 0.727539 301.027 0.920898C301.203 1.1084 301.291 1.33984 301.291 1.61523C301.291 1.88477 301.203 2.11328 301.027 2.30078C300.857 2.48828 300.608 2.58203 300.28 2.58203C299.952 2.58203 299.7 2.48828 299.524 2.30078C299.354 2.11328 299.27 1.88477 299.27 1.61523ZM304.016 1.61523C304.016 1.33984 304.101 1.1084 304.271 0.920898C304.446 0.727539 304.698 0.630859 305.026 0.630859C305.354 0.630859 305.604 0.727539 305.773 0.920898C305.949 1.1084 306.037 1.33984 306.037 1.61523C306.037 1.88477 305.949 2.11328 305.773 2.30078C305.604 2.48828 305.354 2.58203 305.026 2.58203C304.698 2.58203 304.446 2.48828 304.271 2.30078C304.101 2.11328 304.016 1.88477 304.016 1.61523ZM308.762 1.61523C308.762 1.33984 308.847 1.1084 309.017 0.920898C309.192 0.727539 309.444 0.630859 309.772 0.630859C310.101 0.630859 310.35 0.727539 310.52 0.920898C310.695 1.1084 310.783 1.33984 310.783 1.61523C310.783 1.88477 310.695 2.11328 310.52 2.30078C310.35 2.48828 310.101 2.58203 309.772 2.58203C309.444 2.58203 309.192 2.48828 309.017 2.30078C308.847 2.11328 308.762 1.88477 308.762 1.61523ZM313.508 1.61523C313.508 1.33984 313.593 1.1084 313.763 0.920898C313.938 0.727539 314.19 0.630859 314.519 0.630859C314.847 0.630859 315.096 0.727539 315.266 0.920898C315.441 1.1084 315.529 1.33984 315.529 1.61523C315.529 1.88477 315.441 2.11328 315.266 2.30078C315.096 2.48828 314.847 2.58203 314.519 2.58203C314.19 2.58203 313.938 2.48828 313.763 2.30078C313.593 2.11328 313.508 1.88477 313.508 1.61523ZM318.254 1.61523C318.254 1.33984 318.339 1.1084 318.509 0.920898C318.685 0.727539 318.937 0.630859 319.265 0.630859C319.593 0.630859 319.842 0.727539 320.012 0.920898C320.188 1.1084 320.275 1.33984 320.275 1.61523C320.275 1.88477 320.188 2.11328 320.012 2.30078C319.842 2.48828 319.593 2.58203 319.265 2.58203C318.937 2.58203 318.685 2.48828 318.509 2.30078C318.339 2.11328 318.254 1.88477 318.254 1.61523ZM323 1.61523C323 1.33984 323.085 1.1084 323.255 0.920898C323.431 0.727539 323.683 0.630859 324.011 0.630859C324.339 0.630859 324.588 0.727539 324.758 0.920898C324.934 1.1084 325.021 1.33984 325.021 1.61523C325.021 1.88477 324.934 2.11328 324.758 2.30078C324.588 2.48828 324.339 2.58203 324.011 2.58203C323.683 2.58203 323.431 2.48828 323.255 2.30078C323.085 2.11328 323 1.88477 323 1.61523Z" fill="#EDEBF3"/>
</svg>
