<svg width="25" height="26" viewBox="0 0 25 26" fill="none" xmlns="http://www.w3.org/2000/svg">
<rect y="0.5" width="25" height="25" rx="10" fill="url(#paint0_linear_169_2103)"/>
<path fill-rule="evenodd" clip-rule="evenodd" d="M7.6521 13.2888C7.6521 13.1246 7.71731 12.9672 7.83338 12.8511C7.94945 12.735 8.10688 12.6698 8.27103 12.6698H15.442L12.7843 10.0131C12.6681 9.89687 12.6028 9.73922 12.6028 9.57485C12.6028 9.41048 12.6681 9.25284 12.7843 9.13661C12.9005 9.02038 13.0581 8.95508 13.2225 8.95508C13.3868 8.95508 13.5445 9.02038 13.6607 9.13661L17.3743 12.8505C17.4319 12.908 17.4776 12.9764 17.5088 13.0516C17.54 13.1268 17.5561 13.2074 17.5561 13.2888C17.5561 13.3702 17.54 13.4508 17.5088 13.526C17.4776 13.6012 17.4319 13.6695 17.3743 13.727L13.6607 17.441C13.5445 17.5572 13.3868 17.6225 13.2225 17.6225C13.0581 17.6225 12.9005 17.5572 12.7843 17.441C12.6681 17.3248 12.6028 17.1671 12.6028 17.0027C12.6028 16.8384 12.6681 16.6807 12.7843 16.5645L15.442 13.9078H8.27103C8.10688 13.9078 7.94945 13.8426 7.83338 13.7265C7.71731 13.6104 7.6521 13.453 7.6521 13.2888Z" fill="white"/>
<defs>
<linearGradient id="paint0_linear_169_2103" x1="3.125" y1="13" x2="32.5893" y2="13" gradientUnits="userSpaceOnUse">
<stop stop-color="#383552"/>
<stop offset="1" stop-color="#636086"/>
</linearGradient>
</defs>
</svg>
