<svg width="8" height="11" viewBox="0 0 8 11" fill="none" xmlns="http://www.w3.org/2000/svg">
<path d="M7.7845 5.92343C7.85112 5.87617 7.90559 5.81293 7.94322 5.73917C7.98086 5.6654 8.00052 5.58331 8.00052 5.49998C8.00052 5.41664 7.98086 5.33455 7.94322 5.26079C7.90559 5.18702 7.85112 5.12378 7.7845 5.07652L1.2845 0.440159C1.20953 0.386493 1.12172 0.355022 1.0306 0.349166C0.93949 0.343308 0.848562 0.36329 0.767697 0.406939C0.686832 0.450588 0.619124 0.516234 0.571929 0.596746C0.524734 0.677258 0.499857 0.769557 0.500001 0.863613L0.500001 10.1363C0.500377 10.2302 0.525574 10.3221 0.572882 10.4023C0.62019 10.4825 0.68782 10.5479 0.768497 10.5914C0.849175 10.635 0.939848 10.6551 1.03077 10.6495C1.12168 10.6439 1.20941 10.6129 1.2845 10.5598L7.7845 5.92343Z" fill="#383552"/>
</svg>
