<svg width="17" height="21" viewBox="0 0 17 21" fill="none" xmlns="http://www.w3.org/2000/svg">
<path d="M8.92309 21C7.46572 19.7433 6.11486 18.3656 4.88464 16.8813C3.03849 14.6522 0.846192 11.3326 0.846192 8.16917C0.845392 6.55361 1.3187 4.97411 2.20622 3.63058C3.09374 2.28706 4.35557 1.23989 5.83203 0.621604C7.30848 0.00332052 8.93319 -0.158286 10.5005 0.157238C12.0679 0.472762 13.5074 1.25123 14.6369 2.39413C15.3889 3.15098 15.985 4.0511 16.3906 5.04238C16.7963 6.03366 17.0034 7.09643 17 8.16917C17 11.3326 14.8077 14.6522 12.9615 16.8813C11.7313 18.3656 10.3805 19.7433 8.92309 21ZM8.92309 4.66985C8.00504 4.66985 7.12459 5.03853 6.47542 5.69478C5.82626 6.35103 5.46157 7.24109 5.46157 8.16917C5.46157 9.09725 5.82626 9.98731 6.47542 10.6436C7.12459 11.2998 8.00504 11.6685 8.92309 11.6685C9.84115 11.6685 10.7216 11.2998 11.3708 10.6436C12.0199 9.98731 12.3846 9.09725 12.3846 8.16917C12.3846 7.24109 12.0199 6.35103 11.3708 5.69478C10.7216 5.03853 9.84115 4.66985 8.92309 4.66985Z" fill="#4B4B4F"/>
</svg>
