<svg width="38" height="38" viewBox="0 0 38 38" fill="none" xmlns="http://www.w3.org/2000/svg">
<g clip-path="url(#clip0_162_2671)">
<path d="M19.3332 0.666504C9.02481 0.666504 0.668213 9.0231 0.668213 19.3315C0.668213 29.6399 9.02481 37.9965 19.3332 37.9965C29.6416 37.9965 37.9982 29.6399 37.9982 19.3315C37.9982 9.0231 29.6416 0.666504 19.3332 0.666504ZM23.4641 11.3523C25.6819 11.3177 27.6877 12.5234 28.6385 14.579C29.5181 17.2965 28.782 20.0611 27.2308 22.1445C26.207 23.5574 24.9834 24.7758 23.7323 25.8404C22.5814 26.9117 20.0053 29.0318 19.3226 29.0907C18.7192 28.9753 18.0418 28.2919 17.5627 27.9407C14.8708 25.8943 11.9735 23.4069 10.5042 20.686C9.27231 18.0738 9.27007 14.8419 11.1874 12.8392C13.6735 10.5979 17.4212 11.0366 19.3226 13.3781C19.8332 12.7157 20.4613 12.194 21.2066 11.8144C21.9618 11.513 22.7247 11.3639 23.4641 11.3523Z" fill="white" fill-opacity="0.4"/>
</g>
<defs>
<clipPath id="clip0_162_2671">
<rect width="37.33" height="37.33" fill="white" transform="translate(0.668213 0.666504)"/>
</clipPath>
</defs>
</svg>
