<svg width="19" height="14" viewBox="0 0 19 14" fill="none" xmlns="http://www.w3.org/2000/svg">
<path d="M0.648942 1.88504L8.50608 6.29775C8.77008 6.44561 9.11161 6.51571 9.45522 6.51571C9.79884 6.51571 10.1404 6.44561 10.4044 6.29775L18.2615 1.88504C18.7738 1.59699 19.2578 0.476562 18.3181 0.476562H0.593418C-0.346296 0.476562 0.137704 1.59699 0.648942 1.88504ZM18.4993 4.29785L10.4044 8.70837C10.0482 8.90332 9.79884 8.92632 9.45522 8.92632C9.11161 8.92632 8.86227 8.90332 8.50608 8.70837C8.14989 8.51342 1.03342 4.61328 0.45199 4.29675C0.0434187 4.07332 0.0476091 4.33509 0.0476091 4.53661V12.5242C0.0476091 12.9842 0.640561 13.6194 1.09523 13.6194H17.8571C18.3118 13.6194 18.9047 12.9842 18.9047 12.5242V4.53771C18.9047 4.33618 18.9089 4.07442 18.4993 4.29785Z" fill="#383552"/>
</svg>
