<svg width="13" height="21" viewBox="0 0 13 21" fill="none" xmlns="http://www.w3.org/2000/svg">
<path d="M7.85417 18.9C7.85417 18.5391 7.72157 18.2301 7.45638 17.973C7.19119 17.716 6.8724 17.5875 6.5 17.5875C6.1276 17.5875 5.80881 17.716 5.54362 17.973C5.27843 18.2301 5.14583 18.5391 5.14583 18.9C5.14583 19.2609 5.27843 19.5699 5.54362 19.827C5.80881 20.084 6.1276 20.2125 6.5 20.2125C6.8724 20.2125 7.19119 20.084 7.45638 19.827C7.72157 19.5699 7.85417 19.2609 7.85417 18.9ZM11.375 16.275V4.725C11.375 4.58281 11.3214 4.45977 11.2142 4.35586C11.107 4.25195 10.98 4.2 10.8333 4.2H2.16667C2.01997 4.2 1.89301 4.25195 1.78581 4.35586C1.6786 4.45977 1.625 4.58281 1.625 4.725V16.275C1.625 16.4172 1.6786 16.5402 1.78581 16.6441C1.89301 16.748 2.01997 16.8 2.16667 16.8H10.8333C10.98 16.8 11.107 16.748 11.2142 16.6441C11.3214 16.5402 11.375 16.4172 11.375 16.275ZM8.125 2.3625C8.125 2.1875 8.03472 2.1 7.85417 2.1H5.14583C4.96528 2.1 4.875 2.1875 4.875 2.3625C4.875 2.5375 4.96528 2.625 5.14583 2.625H7.85417C8.03472 2.625 8.125 2.5375 8.125 2.3625ZM13 2.1V18.9C13 19.4688 12.7856 19.9609 12.3568 20.3766C11.928 20.7922 11.4201 21 10.8333 21H2.16667C1.57986 21 1.07205 20.7922 0.643229 20.3766C0.21441 19.9609 0 19.4688 0 18.9V2.1C0 1.53125 0.21441 1.03906 0.643229 0.623437C1.07205 0.207812 1.57986 0 2.16667 0H10.8333C11.4201 0 11.928 0.207812 12.3568 0.623437C12.7856 1.03906 13 1.53125 13 2.1Z" fill="#383552"/>
</svg>
