<svg width="26" height="26" viewBox="0 0 26 26" fill="none" xmlns="http://www.w3.org/2000/svg">
<path d="M13 0C20.1797 0 26 5.8203 26 13C26 20.1797 20.1797 26 13 26C5.8203 26 0 20.1797 0 13C0 5.8203 5.8203 0 13 0ZM17.6719 5.16382C17.404 5.14802 17.1619 5.30812 16.9784 5.59228L15.2011 8.96287C15.0139 9.36228 15.1203 9.78993 15.3994 10.0753L16.2135 10.8894C16.2637 10.9582 16.2968 11.0358 16.2976 11.1211C15.9854 12.3295 15.0384 13.4442 14.2028 14.2108C13.3673 14.9774 12.4693 16.0152 11.3036 16.2611C11.1595 16.3013 10.983 16.3157 10.8799 16.2199L9.93408 15.2566C9.60761 15.0092 9.13532 14.8892 8.78674 15.0916H8.77088L5.56376 16.9848C5.09299 17.2798 5.04422 17.8502 5.38126 18.1972L7.5902 20.3887C7.91642 20.7232 8.34979 20.8357 8.77084 20.8362C10.633 20.7804 12.3926 19.8664 13.8378 18.9271C16.2101 17.2013 18.3862 15.0608 19.7523 12.4747C20.2763 11.3903 20.8917 10.0067 20.833 8.7963C20.8278 8.34095 20.7046 7.89486 20.3839 7.60136L18.1749 5.39238C18.0028 5.24595 17.8326 5.17331 17.6719 5.16382Z" fill="white"/>
</svg>
