<svg width="11" height="8" viewBox="0 0 11 8" fill="none" xmlns="http://www.w3.org/2000/svg">
<path d="M5.12333 7.36485C5.16538 7.42413 5.22164 7.47259 5.28727 7.50607C5.3529 7.53955 5.42593 7.55704 5.50008 7.55704C5.57422 7.55704 5.64726 7.53955 5.71289 7.50607C5.77852 7.47259 5.83478 7.42413 5.87683 7.36485L10.0018 1.58176C10.0496 1.51506 10.0776 1.43693 10.0828 1.35587C10.088 1.27481 10.0702 1.19391 10.0314 1.12196C9.99255 1.05001 9.93414 0.989775 9.86251 0.947785C9.79088 0.905795 9.70876 0.883662 9.62508 0.88379H1.37508C1.29159 0.884124 1.20977 0.906542 1.13843 0.948633C1.06709 0.990723 1.00892 1.05089 0.970172 1.12267C0.931427 1.19445 0.913575 1.27512 0.918536 1.35601C0.923497 1.43691 0.951083 1.51495 0.998328 1.58176L5.12333 7.36485Z" fill="white"/>
</svg>
