<svg width="9" height="15" viewBox="0 0 9 15" fill="none" xmlns="http://www.w3.org/2000/svg">
<g clip-path="url(#clip0_227_5648)">
<path d="M5.4375 13.5C5.4375 13.2422 5.3457 13.0215 5.16211 12.8379C4.97852 12.6543 4.75781 12.5625 4.5 12.5625C4.24219 12.5625 4.02148 12.6543 3.83789 12.8379C3.6543 13.0215 3.5625 13.2422 3.5625 13.5C3.5625 13.7578 3.6543 13.9785 3.83789 14.1621C4.02148 14.3457 4.24219 14.4375 4.5 14.4375C4.75781 14.4375 4.97852 14.3457 5.16211 14.1621C5.3457 13.9785 5.4375 13.7578 5.4375 13.5ZM7.875 11.625V3.375C7.875 3.27344 7.83789 3.18555 7.76367 3.11133C7.68945 3.03711 7.60156 3 7.5 3H1.5C1.39844 3 1.31055 3.03711 1.23633 3.11133C1.16211 3.18555 1.125 3.27344 1.125 3.375V11.625C1.125 11.7266 1.16211 11.8145 1.23633 11.8887C1.31055 11.9629 1.39844 12 1.5 12H7.5C7.60156 12 7.68945 11.9629 7.76367 11.8887C7.83789 11.8145 7.875 11.7266 7.875 11.625ZM5.625 1.6875C5.625 1.5625 5.5625 1.5 5.4375 1.5H3.5625C3.4375 1.5 3.375 1.5625 3.375 1.6875C3.375 1.8125 3.4375 1.875 3.5625 1.875H5.4375C5.5625 1.875 5.625 1.8125 5.625 1.6875ZM9 1.5V13.5C9 13.9062 8.85156 14.2578 8.55469 14.5547C8.25781 14.8516 7.90625 15 7.5 15H1.5C1.09375 15 0.742188 14.8516 0.445312 14.5547C0.148438 14.2578 0 13.9062 0 13.5V1.5C0 1.09375 0.148438 0.742188 0.445312 0.445312C0.742188 0.148438 1.09375 0 1.5 0H7.5C7.90625 0 8.25781 0.148438 8.55469 0.445312C8.85156 0.742188 9 1.09375 9 1.5Z" fill="#AAA8B4"/>
</g>
<defs>
<clipPath id="clip0_227_5648">
<rect width="9" height="15" fill="white"/>
</clipPath>
</defs>
</svg>
