<svg width="38" height="38" viewBox="0 0 38 38" fill="none" xmlns="http://www.w3.org/2000/svg">
<path d="M19.3334 0.663086C9.02508 0.663086 0.666748 9.02142 0.666748 19.3298C0.666748 29.6381 9.02508 37.9964 19.3334 37.9964C29.6417 37.9964 38.0001 29.6381 38.0001 19.3298C38.0001 9.02142 29.6417 0.663086 19.3334 0.663086ZM27.3334 20.3298C27.3334 20.5131 27.1834 20.6631 27.0001 20.6631H20.6667V26.9964C20.6667 27.1798 20.5167 27.3298 20.3334 27.3298H18.3334C18.1501 27.3298 18.0001 27.1798 18.0001 26.9964V20.6631H11.6667C11.4834 20.6631 11.3334 20.5131 11.3334 20.3298V18.3298C11.3334 18.1464 11.4834 17.9964 11.6667 17.9964H18.0001V11.6631C18.0001 11.4798 18.1501 11.3298 18.3334 11.3298H20.3334C20.5167 11.3298 20.6667 11.4798 20.6667 11.6631V17.9964H27.0001C27.1834 17.9964 27.3334 18.1464 27.3334 18.3298V20.3298Z" fill="white" fill-opacity="0.4"/>
</svg>
