<svg width="38" height="38" viewBox="0 0 38 38" fill="none" xmlns="http://www.w3.org/2000/svg">
<g clip-path="url(#clip0_162_2673)">
<path fill-rule="evenodd" clip-rule="evenodd" d="M38.0001 19.3298C38.0001 29.6384 29.6421 37.9964 19.3334 37.9964C9.02475 37.9964 0.666748 29.6384 0.666748 19.3298C0.666748 9.02109 9.02475 0.663086 19.3334 0.663086C29.6421 0.663086 38.0001 9.02109 38.0001 19.3298ZM20.0023 14.4438C18.187 15.1982 14.5579 16.7615 9.11653 19.1322C8.23297 19.4838 7.76941 19.8275 7.72741 20.1635C7.65586 20.7329 8.3683 20.9569 9.33586 21.2602C9.46808 21.3022 9.60497 21.3442 9.74497 21.3909C10.6985 21.7004 11.9803 22.0629 12.6461 22.0769C13.2512 22.0893 13.9263 21.8404 14.6714 21.3302C19.755 17.8971 22.3792 16.1626 22.5441 16.1253C22.6607 16.0989 22.8225 16.0646 22.9314 16.1626C23.0403 16.2591 23.0294 16.4426 23.0185 16.4924C22.947 16.7926 20.1563 19.3889 18.7096 20.7329C18.2585 21.1513 17.9396 21.4484 17.8743 21.5169C17.7281 21.6678 17.5787 21.8124 17.4356 21.9509C16.549 22.8033 15.8863 23.4442 17.473 24.4895C18.2352 24.992 18.845 25.4073 19.4532 25.8211C20.1174 26.2738 20.7801 26.7249 21.6387 27.288C21.8565 27.4311 22.065 27.5789 22.2687 27.7235C23.0419 28.2758 23.7372 28.7704 24.5959 28.6926C25.0936 28.646 25.6101 28.1777 25.8714 26.7793C26.489 23.4722 27.7054 16.3104 27.987 13.358C28.0041 13.1128 27.9937 12.8666 27.9559 12.6238C27.9332 12.4276 27.8377 12.2472 27.6883 12.1182C27.4659 11.9362 27.1205 11.8973 26.965 11.9004C26.2634 11.9129 25.187 12.2878 20.0023 14.4438Z" fill="white" fill-opacity="0.4"/>
</g>
<defs>
<clipPath id="clip0_162_2673">
<rect width="37.3333" height="37.3333" fill="white" transform="translate(0.666748 0.663086)"/>
</clipPath>
</defs>
</svg>
