<svg width="12" height="12" viewBox="0 0 12 12" fill="none" xmlns="http://www.w3.org/2000/svg">
<path fill-rule="evenodd" clip-rule="evenodd" d="M6.00008 0.166992C2.77833 0.166992 0.166748 2.77858 0.166748 6.00033C0.166748 7.10283 0.472998 8.13533 1.00558 9.01499L0.485248 10.7837C0.455372 10.8852 0.453407 10.9929 0.479557 11.0955C0.505708 11.1981 0.559009 11.2917 0.633858 11.3665C0.708706 11.4414 0.802337 11.4947 0.904908 11.5209C1.00748 11.547 1.1152 11.545 1.21675 11.5152L2.98541 10.9948C3.89464 11.545 4.93738 11.8351 6.00008 11.8337C9.22183 11.8337 11.8334 9.22207 11.8334 6.00033C11.8334 2.77858 9.22183 0.166992 6.00008 0.166992ZM4.68058 7.32041C5.86066 8.49991 6.98708 8.65566 7.38491 8.67024C7.98983 8.69241 8.579 8.23041 8.80825 7.69433C8.83719 7.62764 8.84769 7.5544 8.83867 7.48226C8.82964 7.41013 8.8014 7.34174 8.75691 7.28424C8.43725 6.87591 8.005 6.58249 7.58266 6.29083C7.49449 6.22986 7.38613 6.2054 7.28031 6.22258C7.17449 6.23976 7.07944 6.29725 7.01508 6.38299L6.66508 6.91674C6.64668 6.94544 6.61801 6.96601 6.58493 6.97425C6.55185 6.9825 6.51688 6.97778 6.48716 6.96108C6.24975 6.82516 5.90383 6.59416 5.65533 6.34566C5.40683 6.09716 5.18983 5.76699 5.06791 5.54474C5.0528 5.51651 5.04843 5.48375 5.05561 5.45254C5.0628 5.42132 5.08106 5.39378 5.107 5.37499L5.646 4.97482C5.72292 4.90794 5.77256 4.81511 5.78547 4.714C5.79838 4.61288 5.77365 4.51055 5.716 4.42649C5.45466 4.04383 5.15016 3.55733 4.70858 3.23474C4.65159 3.19344 4.58483 3.16769 4.51488 3.16002C4.44492 3.15235 4.37416 3.16302 4.30958 3.19099C3.77291 3.42083 3.30858 4.00999 3.33075 4.61608C3.34533 5.01391 3.50108 6.14033 4.68058 7.32041Z" fill="#A9A8B4"/>
</svg>
