<svg width="18" height="19" fill="none" xmlns="http://www.w3.org/2000/svg"><g clip-path="url(#clip0_143_1244)"><path d="M17.719 9.477A8.718 8.718 0 019 18.195 8.718 8.718 0 01.281 9.477 8.72 8.72 0 019 .757a8.72 8.72 0 018.719 8.72zM9.234 3.64c-1.916 0-3.138.807-4.097 2.241a.422.422 0 00.095.572l1.22.925a.422.422 0 00.586-.075c.628-.797 1.058-1.258 2.014-1.258.719 0 1.607.462 1.607 1.158 0 .527-.435.797-1.144 1.195-.827.463-1.921 1.04-1.921 2.484v.14c0 .233.189.422.422.422h1.968a.422.422 0 00.422-.422v-.046c0-1.001 2.925-1.043 2.925-3.75 0-2.04-2.115-3.586-4.097-3.586zM9 12.359a1.62 1.62 0 00-1.617 1.618c0 .891.725 1.617 1.617 1.617s1.617-.726 1.617-1.617A1.62 1.62 0 009 12.359z" fill="#3B3856"/></g><defs><clipPath id="clip0_143_1244"><path fill="#fff" transform="translate(0 .477)" d="M0 0h18v18H0z"/></clipPath></defs></svg>