<svg width="28" height="28" fill="none" xmlns="http://www.w3.org/2000/svg"><g clip-path="url(#clip0_138_3289)"><path d="M14 0C6.268 0 0 6.268 0 14s6.268 14 14 14 14-6.268 14-14S21.732 0 14 0zm3.098 8.015c1.664-.026 3.168.878 3.882 2.42.66 2.039.107 4.112-1.056 5.675-.768 1.06-1.686 1.974-2.624 2.772-.864.804-2.796 2.394-3.308 2.438-.453-.087-.96-.6-1.32-.863-2.02-1.534-4.192-3.4-5.294-5.441-.924-1.96-.926-4.383.512-5.886 1.865-1.68 4.676-1.352 6.102.405a4.13 4.13 0 011.413-1.173 4.765 4.765 0 011.693-.347z" fill="#201F2E" fill-opacity=".1"/></g><defs><clipPath id="clip0_138_3289"><path fill="#fff" d="M0 0h28v28H0z"/></clipPath></defs></svg>