<svg width="326" height="3" fill="none" xmlns="http://www.w3.org/2000/svg"><path d="M.266 1.615c0-.275.085-.507.255-.694.175-.193.427-.29.755-.29s.578.097.747.29a.977.977 0 01.264.694c0 .27-.088.498-.264.686-.17.187-.419.281-.747.281s-.58-.094-.755-.281a.984.984 0 01-.255-.686zm4.746 0c0-.275.085-.507.255-.694.175-.193.427-.29.755-.29.329 0 .578.097.748.29a.977.977 0 01.263.694.97.97 0 01-.263.686c-.17.187-.42.281-.748.281s-.58-.094-.755-.281a.984.984 0 01-.255-.686zm4.746 0c0-.275.085-.507.255-.694.175-.193.427-.29.756-.29.328 0 .577.097.747.29a.977.977 0 01.263.694.97.97 0 01-.263.686c-.17.187-.42.281-.747.281-.329 0-.58-.094-.756-.281a.984.984 0 01-.255-.686zm4.746 0c0-.275.085-.507.255-.694.176-.193.428-.29.756-.29s.577.097.747.29a.977.977 0 01.263.694c0 .27-.087.498-.263.686-.17.187-.42.281-.747.281-.329 0-.58-.094-.756-.281a.984.984 0 01-.255-.686zm4.746 0c0-.275.085-.507.255-.694.176-.193.428-.29.756-.29s.577.097.747.29a.977.977 0 01.264.694c0 .27-.088.498-.264.686-.17.187-.42.281-.747.281-.328 0-.58-.094-.756-.281a.984.984 0 01-.255-.686zm4.746 0c0-.275.085-.507.255-.694.176-.193.428-.29.756-.29s.577.097.747.29a.977.977 0 01.264.694c0 .27-.088.498-.264.686-.17.187-.419.281-.747.281s-.58-.094-.756-.281a.984.984 0 01-.255-.686zm4.746 0c0-.275.085-.507.255-.694.176-.193.428-.29.756-.29s.577.097.747.29a.977.977 0 01.264.694c0 .27-.088.498-.264.686-.17.187-.419.281-.747.281s-.58-.094-.756-.281a.984.984 0 01-.255-.686zm4.746 0c0-.275.085-.507.255-.694.176-.193.428-.29.756-.29s.577.097.747.29a.977.977 0 01.264.694c0 .27-.088.498-.264.686-.17.187-.419.281-.747.281s-.58-.094-.756-.281a.984.984 0 01-.255-.686zm4.746 0c0-.275.085-.507.255-.694.176-.193.428-.29.756-.29s.577.097.747.29a.977.977 0 01.264.694c0 .27-.088.498-.264.686-.17.187-.419.281-.747.281s-.58-.094-.756-.281a.984.984 0 01-.255-.686zm4.746 0c0-.275.085-.507.255-.694.176-.193.428-.29.756-.29s.577.097.747.29a.977.977 0 01.264.694c0 .27-.088.498-.264.686-.17.187-.419.281-.747.281s-.58-.094-.756-.281a.984.984 0 01-.255-.686zm4.747 0c0-.275.085-.507.254-.694.176-.193.428-.29.756-.29s.578.097.747.29a.977.977 0 01.264.694c0 .27-.088.498-.264.686-.17.187-.419.281-.747.281s-.58-.094-.756-.281a.984.984 0 01-.254-.686zm4.746 0c0-.275.085-.507.255-.694.175-.193.427-.29.755-.29.329 0 .578.097.748.29a.977.977 0 01.263.694c0 .27-.088.498-.264.686-.17.187-.418.281-.747.281-.328 0-.58-.094-.755-.281a.984.984 0 01-.255-.686zm4.746 0c0-.275.085-.507.255-.694.175-.193.427-.29.756-.29.328 0 .577.097.747.29a.977.977 0 01.263.694.97.97 0 01-.263.686c-.17.187-.42.281-.747.281-.329 0-.58-.094-.756-.281a.984.984 0 01-.255-.686zm4.746 0c0-.275.085-.507.255-.694.175-.193.428-.29.756-.29s.577.097.747.29a.977.977 0 01.263.694.97.97 0 01-.263.686c-.17.187-.42.281-.747.281-.328 0-.58-.094-.756-.281a.984.984 0 01-.255-.686zm4.746 0c0-.275.085-.507.255-.694.176-.193.428-.29.756-.29s.577.097.747.29a.977.977 0 01.263.694.97.97 0 01-.263.686c-.17.187-.42.281-.747.281-.328 0-.58-.094-.756-.281a.984.984 0 01-.255-.686zm4.746 0c0-.275.085-.507.255-.694.176-.193.428-.29.756-.29s.577.097.747.29a.977.977 0 01.263.694c0 .27-.087.498-.263.686-.17.187-.42.281-.747.281-.328 0-.58-.094-.756-.281a.984.984 0 01-.255-.686zm4.746 0c0-.275.085-.507.255-.694.176-.193.428-.29.756-.29s.577.097.747.29a.977.977 0 01.264.694c0 .27-.088.498-.264.686-.17.187-.419.281-.747.281s-.58-.094-.756-.281a.984.984 0 01-.255-.686zm4.746 0c0-.275.085-.507.255-.694.176-.193.428-.29.756-.29s.577.097.747.29a.977.977 0 01.264.694c0 .27-.088.498-.264.686-.17.187-.419.281-.747.281s-.58-.094-.756-.281a.984.984 0 01-.255-.686zm4.746 0c0-.275.085-.507.255-.694.176-.193.428-.29.756-.29s.577.097.747.29a.977.977 0 01.264.694c0 .27-.088.498-.264.686-.17.187-.419.281-.747.281s-.58-.094-.756-.281a.984.984 0 01-.255-.686zm4.746 0c0-.275.085-.507.255-.694.176-.193.428-.29.756-.29s.577.097.747.29a.977.977 0 01.264.694c0 .27-.088.498-.264.686-.17.187-.419.281-.747.281s-.58-.094-.756-.281a.984.984 0 01-.255-.686zm4.746 0c0-.275.085-.507.255-.694.176-.193.428-.29.756-.29s.577.097.747.29a.977.977 0 01.264.694c0 .27-.088.498-.264.686-.17.187-.419.281-.747.281s-.58-.094-.756-.281a.984.984 0 01-.254-.686zm4.747 0a1 1 0 01.254-.694c.176-.193.428-.29.756-.29s.577.097.747.29a.976.976 0 01.264.694c0 .27-.088.498-.264.686-.17.187-.419.281-.747.281s-.58-.094-.756-.281a.988.988 0 01-.254-.686zm4.746 0c0-.275.085-.507.255-.694.175-.193.427-.29.755-.29.329 0 .578.097.748.29a.98.98 0 01.263.694.97.97 0 01-.263.686c-.17.187-.419.281-.748.281-.328 0-.58-.094-.755-.281a.984.984 0 01-.255-.686zm4.746 0c0-.275.085-.507.255-.694.175-.193.427-.29.756-.29.328 0 .577.097.747.29a.98.98 0 01.263.694.97.97 0 01-.263.686c-.17.187-.419.281-.747.281-.329 0-.581-.094-.756-.281a.984.984 0 01-.255-.686zm4.746 0c0-.275.085-.507.255-.694.176-.193.427-.29.756-.29.328 0 .577.097.747.29a.98.98 0 01.263.694.97.97 0 01-.263.686c-.17.187-.419.281-.747.281-.329 0-.58-.094-.756-.281a.984.984 0 01-.255-.686zm4.746 0c0-.275.085-.507.255-.694.176-.193.428-.29.756-.29s.577.097.747.29a.975.975 0 01.263.694c0 .27-.087.498-.263.686-.17.187-.419.281-.747.281s-.58-.094-.756-.281a.984.984 0 01-.255-.686zm4.746 0c0-.275.085-.507.255-.694.176-.193.428-.29.756-.29s.577.097.747.29a.976.976 0 01.264.694c0 .27-.088.498-.264.686-.17.187-.419.281-.747.281s-.58-.094-.756-.281a.984.984 0 01-.255-.686zm4.746 0c0-.275.085-.507.255-.694.176-.193.428-.29.756-.29s.577.097.747.29a.976.976 0 01.264.694c0 .27-.088.498-.264.686-.17.187-.419.281-.747.281s-.58-.094-.756-.281a.984.984 0 01-.255-.686zm4.746 0c0-.275.085-.507.255-.694.176-.193.428-.29.756-.29s.577.097.747.29a.976.976 0 01.264.694c0 .27-.088.498-.264.686-.17.187-.419.281-.747.281s-.58-.094-.756-.281a.984.984 0 01-.255-.686zm4.746 0c0-.275.085-.507.255-.694.176-.193.428-.29.756-.29s.577.097.747.29a.976.976 0 01.264.694c0 .27-.088.498-.264.686-.17.187-.419.281-.747.281s-.58-.094-.756-.281a.984.984 0 01-.255-.686zm4.746 0c0-.275.085-.507.255-.694.176-.193.428-.29.756-.29s.577.097.747.29a.976.976 0 01.264.694c0 .27-.088.498-.264.686-.17.187-.419.281-.747.281s-.58-.094-.756-.281a.984.984 0 01-.255-.686zm4.747 0c0-.275.084-.507.254-.694.176-.193.428-.29.756-.29s.577.097.747.29a.976.976 0 01.264.694c0 .27-.088.498-.264.686-.17.187-.419.281-.747.281s-.58-.094-.756-.281a.983.983 0 01-.254-.686zm4.746 0c0-.275.085-.507.255-.694.175-.193.427-.29.755-.29s.578.097.747.29a.976.976 0 01.264.694c0 .27-.088.498-.264.686-.169.187-.419.281-.747.281s-.58-.094-.755-.281a.984.984 0 01-.255-.686zm4.746 0c0-.275.085-.507.255-.694.175-.193.427-.29.755-.29.329 0 .578.097.748.29a.98.98 0 01.263.694.97.97 0 01-.263.686c-.17.187-.419.281-.748.281-.328 0-.58-.094-.755-.281a.984.984 0 01-.255-.686zm4.746 0c0-.275.085-.507.255-.694.175-.193.427-.29.756-.29.328 0 .577.097.747.29a.98.98 0 01.263.694.97.97 0 01-.263.686c-.17.187-.419.281-.747.281-.329 0-.581-.094-.756-.281a.984.984 0 01-.255-.686zm4.746 0c0-.275.085-.507.255-.694.176-.193.428-.29.756-.29s.577.097.747.29a.98.98 0 01.263.694.97.97 0 01-.263.686c-.17.187-.419.281-.747.281s-.58-.094-.756-.281a.984.984 0 01-.255-.686zm4.746 0c0-.275.085-.507.255-.694.176-.193.428-.29.756-.29s.577.097.747.29a.975.975 0 01.263.694c0 .27-.087.498-.263.686-.17.187-.419.281-.747.281s-.58-.094-.756-.281a.984.984 0 01-.255-.686zm4.746 0c0-.275.085-.507.255-.694.176-.193.428-.29.756-.29s.577.097.747.29a.976.976 0 01.264.694c0 .27-.088.498-.264.686-.17.187-.419.281-.747.281s-.58-.094-.756-.281a.984.984 0 01-.255-.686zm4.746 0c0-.275.085-.507.255-.694.176-.193.428-.29.756-.29s.577.097.747.29a.976.976 0 01.264.694c0 .27-.088.498-.264.686-.17.187-.419.281-.747.281s-.58-.094-.756-.281a.984.984 0 01-.255-.686zm4.746 0c0-.275.085-.507.255-.694.176-.193.428-.29.756-.29s.577.097.747.29a.976.976 0 01.264.694c0 .27-.088.498-.264.686-.17.187-.419.281-.747.281s-.58-.094-.756-.281a.984.984 0 01-.255-.686zm4.746 0c0-.275.085-.507.255-.694.176-.193.428-.29.756-.29s.577.097.747.29a.976.976 0 01.264.694c0 .27-.088.498-.264.686-.17.187-.419.281-.747.281s-.58-.094-.756-.281a.984.984 0 01-.255-.686zm4.746 0c0-.275.085-.507.255-.694.176-.193.428-.29.756-.29s.577.097.747.29a.976.976 0 01.264.694c0 .27-.088.498-.264.686-.17.187-.419.281-.747.281s-.58-.094-.756-.281a.984.984 0 01-.255-.686zm4.747 0a1 1 0 01.254-.694c.176-.193.428-.29.756-.29s.577.097.747.29a.976.976 0 01.264.694c0 .27-.088.498-.264.686-.17.187-.419.281-.747.281s-.58-.094-.756-.281a.988.988 0 01-.254-.686zm4.746 0c0-.275.085-.507.255-.694.175-.193.427-.29.755-.29.329 0 .578.097.747.29a.976.976 0 01.264.694c0 .27-.088.498-.264.686-.169.187-.418.281-.747.281-.328 0-.58-.094-.755-.281a.984.984 0 01-.255-.686zm4.746 0c0-.275.085-.507.255-.694.175-.193.427-.29.755-.29.329 0 .578.097.748.29a.98.98 0 01.263.694.97.97 0 01-.263.686c-.17.187-.419.281-.748.281-.328 0-.58-.094-.755-.281a.984.984 0 01-.255-.686zm4.746 0c0-.275.085-.507.255-.694.176-.193.427-.29.756-.29.328 0 .577.097.747.29a.98.98 0 01.263.694.97.97 0 01-.263.686c-.17.187-.419.281-.747.281-.329 0-.58-.094-.756-.281a.984.984 0 01-.255-.686zm4.746 0c0-.275.085-.507.255-.694.176-.193.428-.29.756-.29s.577.097.747.29a.975.975 0 01.263.694c0 .27-.087.498-.263.686-.17.187-.419.281-.747.281s-.58-.094-.756-.281a.984.984 0 01-.255-.686zm4.746 0c0-.275.085-.507.255-.694.176-.193.428-.29.756-.29s.577.097.747.29a.976.976 0 01.264.694c0 .27-.088.498-.264.686-.17.187-.419.281-.747.281s-.58-.094-.756-.281a.984.984 0 01-.255-.686zm4.746 0c0-.275.085-.507.255-.694.176-.193.428-.29.756-.29s.577.097.747.29a.976.976 0 01.264.694c0 .27-.088.498-.264.686-.17.187-.419.281-.747.281s-.58-.094-.756-.281a.984.984 0 01-.255-.686zm4.746 0c0-.275.085-.507.255-.694.176-.193.428-.29.756-.29s.577.097.747.29a.976.976 0 01.264.694c0 .27-.088.498-.264.686-.17.187-.419.281-.747.281s-.58-.094-.756-.281a.984.984 0 01-.255-.686zm4.746 0c0-.275.085-.507.255-.694.176-.193.428-.29.756-.29s.577.097.747.29a.976.976 0 01.264.694c0 .27-.088.498-.264.686-.17.187-.419.281-.747.281s-.58-.094-.756-.281a.984.984 0 01-.255-.686zm4.746 0c0-.275.085-.507.255-.694.176-.193.428-.29.756-.29s.577.097.747.29a.976.976 0 01.264.694c0 .27-.088.498-.264.686-.17.187-.419.281-.747.281s-.58-.094-.756-.281a.984.984 0 01-.255-.686zm4.746 0c0-.275.085-.507.255-.694.176-.193.428-.29.756-.29s.577.097.747.29a.976.976 0 01.264.694c0 .27-.088.498-.264.686-.17.187-.419.281-.747.281s-.58-.094-.756-.281a.984.984 0 01-.255-.686zm4.747 0a1 1 0 01.254-.694c.176-.193.428-.29.756-.29s.577.097.747.29a.976.976 0 01.264.694c0 .27-.088.498-.264.686-.17.187-.419.281-.747.281s-.58-.094-.756-.281a.988.988 0 01-.254-.686zm4.746 0c0-.275.085-.507.255-.694.175-.193.427-.29.755-.29.329 0 .578.097.747.29a.976.976 0 01.264.694c0 .27-.088.498-.264.686-.169.187-.418.281-.747.281-.328 0-.58-.094-.755-.281a.984.984 0 01-.255-.686zm4.746 0c0-.275.085-.507.255-.694.175-.193.427-.29.756-.29.328 0 .577.097.747.29a.98.98 0 01.263.694.97.97 0 01-.263.686c-.17.187-.419.281-.747.281-.329 0-.581-.094-.756-.281a.984.984 0 01-.255-.686zm4.746 0c0-.275.085-.507.255-.694.176-.193.427-.29.756-.29.328 0 .577.097.747.29a.98.98 0 01.263.694.97.97 0 01-.263.686c-.17.187-.419.281-.747.281-.329 0-.58-.094-.756-.281a.984.984 0 01-.255-.686zm4.746 0c0-.275.085-.507.255-.694.176-.193.428-.29.756-.29s.577.097.747.29a.975.975 0 01.263.694c0 .27-.087.498-.263.686-.17.187-.419.281-.747.281s-.58-.094-.756-.281a.984.984 0 01-.255-.686zm4.746 0c0-.275.085-.507.255-.694.176-.193.428-.29.756-.29s.577.097.747.29a.976.976 0 01.264.694c0 .27-.088.498-.264.686-.17.187-.419.281-.747.281s-.58-.094-.756-.281a.984.984 0 01-.255-.686zm4.746 0c0-.275.085-.507.255-.694.176-.193.428-.29.756-.29s.577.097.747.29a.976.976 0 01.264.694c0 .27-.088.498-.264.686-.17.187-.419.281-.747.281s-.58-.094-.756-.281a.984.984 0 01-.255-.686zm4.746 0c0-.275.085-.507.255-.694.176-.193.428-.29.756-.29s.577.097.747.29a.976.976 0 01.264.694c0 .27-.088.498-.264.686-.17.187-.419.281-.747.281s-.58-.094-.756-.281a.984.984 0 01-.255-.686zm4.746 0c0-.275.085-.507.255-.694.176-.193.428-.29.756-.29s.577.097.747.29a.976.976 0 01.264.694c0 .27-.088.498-.264.686-.17.187-.419.281-.747.281s-.58-.094-.756-.281a.984.984 0 01-.255-.686zm4.746 0c0-.275.085-.507.255-.694.176-.193.428-.29.756-.29s.577.097.747.29a.976.976 0 01.264.694c0 .27-.088.498-.264.686-.17.187-.419.281-.747.281s-.58-.094-.756-.281a.984.984 0 01-.255-.686zm4.747 0c0-.275.084-.507.254-.694.176-.193.428-.29.756-.29s.577.097.747.29a.976.976 0 01.264.694c0 .27-.088.498-.264.686-.17.187-.419.281-.747.281s-.58-.094-.756-.281a.983.983 0 01-.254-.686zm4.746 0c0-.275.085-.507.255-.694.175-.193.427-.29.755-.29s.578.097.747.29a.976.976 0 01.264.694c0 .27-.088.498-.264.686-.169.187-.419.281-.747.281s-.58-.094-.755-.281a.984.984 0 01-.255-.686zm4.746 0c0-.275.085-.507.255-.694.175-.193.427-.29.755-.29.329 0 .578.097.748.29a.98.98 0 01.263.694.97.97 0 01-.263.686c-.17.187-.419.281-.748.281-.328 0-.58-.094-.755-.281a.984.984 0 01-.255-.686zm4.746 0c0-.275.085-.507.255-.694.175-.193.427-.29.756-.29.328 0 .577.097.747.29a.98.98 0 01.263.694.97.97 0 01-.263.686c-.17.187-.419.281-.747.281-.329 0-.581-.094-.756-.281a.984.984 0 01-.255-.686zm4.746 0c0-.275.085-.507.255-.694.176-.193.428-.29.756-.29s.577.097.747.29a.975.975 0 01.263.694c0 .27-.087.498-.263.686-.17.187-.419.281-.747.281s-.58-.094-.756-.281a.984.984 0 01-.255-.686zm4.746 0c0-.275.085-.507.255-.694.176-.193.428-.29.756-.29s.577.097.747.29a.975.975 0 01.263.694c0 .27-.087.498-.263.686-.17.187-.419.281-.747.281s-.58-.094-.756-.281a.984.984 0 01-.255-.686z" fill="#EDEBF3"/></svg>