<svg width="17" height="21" viewBox="0 0 17 21" fill="none" xmlns="http://www.w3.org/2000/svg">
<path d="M8.0769 21C6.61953 19.7433 5.26867 18.3656 4.03845 16.8813C2.1923 14.6522 1.01411e-06 11.3326 1.01411e-06 8.16917C-0.000799636 6.55361 0.472509 4.97411 1.36003 3.63058C2.24755 2.28706 3.50938 1.23989 4.98584 0.621604C6.46229 0.00332052 8.087 -0.158286 9.65434 0.157238C11.2217 0.472762 12.6612 1.25123 13.7907 2.39413C14.5428 3.15098 15.1388 4.0511 15.5444 5.04238C15.9501 6.03366 16.1572 7.09643 16.1538 8.16917C16.1538 11.3326 13.9615 14.6522 12.1154 16.8813C10.8851 18.3656 9.53427 19.7433 8.0769 21ZM8.0769 4.66985C7.15885 4.66985 6.27839 5.03853 5.62923 5.69478C4.98007 6.35103 4.61537 7.24109 4.61537 8.16917C4.61537 9.09725 4.98007 9.98731 5.62923 10.6436C6.27839 11.2998 7.15885 11.6685 8.0769 11.6685C8.99496 11.6685 9.87541 11.2998 10.5246 10.6436C11.1737 9.98731 11.5384 9.09725 11.5384 8.16917C11.5384 7.24109 11.1737 6.35103 10.5246 5.69478C9.87541 5.03853 8.99496 4.66985 8.0769 4.66985Z" fill="white"/>
</svg>
