<svg width="19" height="14" viewBox="0 0 19 14" fill="none" xmlns="http://www.w3.org/2000/svg">
<path d="M0.649186 1.88504L8.50633 6.29775C8.77033 6.44561 9.11185 6.51571 9.45547 6.51571C9.79909 6.51571 10.1406 6.44561 10.4046 6.29775L18.2618 1.88504C18.774 1.59699 19.258 0.476562 18.3183 0.476562H0.593663C-0.346051 0.476562 0.137948 1.59699 0.649186 1.88504ZM18.4996 4.29785L10.4046 8.70837C10.0484 8.90332 9.79909 8.92632 9.45547 8.92632C9.11185 8.92632 8.86252 8.90332 8.50633 8.70837C8.15014 8.51342 1.03366 4.61328 0.452234 4.29675C0.0436628 4.07332 0.0478533 4.33509 0.0478533 4.53661V12.5242C0.0478533 12.9842 0.640806 13.6194 1.09547 13.6194H17.8574C18.312 13.6194 18.905 12.9842 18.905 12.5242V4.53771C18.905 4.33618 18.9092 4.07442 18.4996 4.29785Z" fill="white"/>
</svg>
