<svg width="31" height="31" viewBox="0 0 31 31" fill="none" xmlns="http://www.w3.org/2000/svg">
<g clip-path="url(#clip0_162_2027)">
<path d="M15.5001 0.620117C7.28202 0.620117 0.620117 7.28202 0.620117 15.5001C0.620117 23.7182 7.28202 30.3801 15.5001 30.3801C23.7182 30.3801 30.3801 23.7182 30.3801 15.5001C30.3801 7.28202 23.7182 0.620117 15.5001 0.620117ZM21.2227 17.4082C21.2227 17.4082 22.5387 18.7071 22.8626 19.31C22.8719 19.3224 22.8766 19.3348 22.8797 19.341C23.0114 19.5627 23.0424 19.7347 22.9773 19.8634C22.8688 20.0773 22.4968 20.1827 22.3697 20.192H20.0447C19.8835 20.192 19.5456 20.1501 19.1364 19.868C18.8218 19.6479 18.5118 19.2868 18.2095 18.9349C17.7585 18.411 17.3679 17.9584 16.9742 17.9584C16.9242 17.9583 16.8745 17.9662 16.8269 17.9817C16.5293 18.0778 16.148 18.5025 16.148 19.634C16.148 19.9874 15.869 20.1904 15.6722 20.1904H14.6073C14.2446 20.1904 12.3552 20.0633 10.6812 18.2979C8.63207 16.1356 6.78757 11.7987 6.77207 11.7584C6.65582 11.4779 6.89607 11.3275 7.15802 11.3275H9.50627C9.81937 11.3275 9.92167 11.5182 9.99297 11.6871C10.0767 11.884 10.3836 12.6667 10.8873 13.5471C11.7042 14.9824 12.2048 15.5652 12.6063 15.5652C12.6815 15.5643 12.7555 15.5452 12.8217 15.5094C13.3456 15.218 13.248 13.3503 13.2247 12.9628C13.2247 12.8899 13.2232 12.1273 12.955 11.7615C12.7628 11.4965 12.4358 11.3957 12.2374 11.3585C12.3177 11.2477 12.4235 11.1579 12.5458 11.0966C12.9054 10.9168 13.5533 10.8904 14.1966 10.8904H14.5546C15.2521 10.8997 15.4319 10.9447 15.6846 11.0082C16.1961 11.1307 16.2069 11.4608 16.162 12.5908C16.148 12.9116 16.1341 13.2743 16.1341 13.7021C16.1341 13.7951 16.1294 13.8943 16.1294 13.9997C16.1139 14.5748 16.0953 15.2273 16.5014 15.4955C16.5544 15.5287 16.6156 15.5464 16.6781 15.5466C16.8192 15.5466 17.2439 15.5466 18.394 13.5735C18.7487 12.9384 19.0569 12.2784 19.3162 11.5988C19.3395 11.5585 19.4077 11.4345 19.4883 11.3864C19.5478 11.3561 19.6137 11.3407 19.6805 11.3415H22.441C22.7417 11.3415 22.9479 11.3864 22.9866 11.5027C23.0548 11.6871 22.9742 12.2498 21.7141 13.9563L21.1514 14.6988C20.0091 16.1961 20.0091 16.272 21.2227 17.4082Z" fill="#C8C6D3"/>
</g>
<defs>
<clipPath id="clip0_162_2027">
<rect width="31" height="31" fill="white"/>
</clipPath>
</defs>
</svg>
