<svg width="31" height="31" viewBox="0 0 31 31" fill="none" xmlns="http://www.w3.org/2000/svg">
<g clip-path="url(#clip0_162_2029)">
<path d="M17.9848 15.2413L14.5035 13.6169C14.1997 13.4758 13.9501 13.6339 13.9501 13.9703V17.03C13.9501 17.3663 14.1997 17.5244 14.5035 17.3834L17.9832 15.759C18.2886 15.6164 18.2886 15.3839 17.9848 15.2413ZM15.5001 0.620117C7.28202 0.620117 0.620117 7.28202 0.620117 15.5001C0.620117 23.7182 7.28202 30.3801 15.5001 30.3801C23.7182 30.3801 30.3801 23.7182 30.3801 15.5001C30.3801 7.28202 23.7182 0.620117 15.5001 0.620117ZM15.5001 21.5451C7.88342 21.5451 7.75012 20.8585 7.75012 15.5001C7.75012 10.1418 7.88342 9.45512 15.5001 9.45512C23.1168 9.45512 23.2501 10.1418 23.2501 15.5001C23.2501 20.8585 23.1168 21.5451 15.5001 21.5451Z" fill="#C8C6D3"/>
</g>
<defs>
<clipPath id="clip0_162_2029">
<rect width="31" height="31" fill="white"/>
</clipPath>
</defs>
</svg>
