<svg width="50" height="51" viewBox="0 0 50 51" fill="none" xmlns="http://www.w3.org/2000/svg">
<g clip-path="url(#clip0_162_2193)">
<path d="M25 0.5C18.3696 0.5 12.0107 3.13392 7.32233 7.82233C2.63392 12.5107 0 18.8696 0 25.5C0 32.1304 2.63392 38.4893 7.32233 43.1777C12.0107 47.8661 18.3696 50.5 25 50.5C31.6304 50.5 37.9893 47.8661 42.6777 43.1777C47.3661 38.4893 50 32.1304 50 25.5C50 18.8696 47.3661 12.5107 42.6777 7.82233C37.9893 3.13392 31.6304 0.5 25 0.5V0.5ZM35.9375 23.9375C36.3519 23.9375 36.7493 24.1021 37.0424 24.3951C37.3354 24.6882 37.5 25.0856 37.5 25.5C37.5 25.9144 37.3354 26.3118 37.0424 26.6049C36.7493 26.8979 36.3519 27.0625 35.9375 27.0625H17.8344L24.5438 33.7687C24.689 33.914 24.8043 34.0865 24.8829 34.2763C24.9615 34.4661 25.002 34.6696 25.002 34.875C25.002 35.0804 24.9615 35.2839 24.8829 35.4737C24.8043 35.6635 24.689 35.836 24.5438 35.9813C24.3985 36.1265 24.226 36.2418 24.0362 36.3204C23.8464 36.399 23.643 36.4395 23.4375 36.4395C23.232 36.4395 23.0286 36.399 22.8388 36.3204C22.649 36.2418 22.4765 36.1265 22.3312 35.9813L12.9562 26.6063C12.8107 26.4611 12.6953 26.2887 12.6165 26.0989C12.5378 25.909 12.4972 25.7055 12.4972 25.5C12.4972 25.2945 12.5378 25.091 12.6165 24.9011C12.6953 24.7113 12.8107 24.5389 12.9562 24.3937L22.3312 15.0187C22.6246 14.7254 23.0226 14.5605 23.4375 14.5605C23.8524 14.5605 24.2504 14.7254 24.5438 15.0187C24.8371 15.3121 25.002 15.7101 25.002 16.125C25.002 16.5399 24.8371 16.9379 24.5438 17.2313L17.8344 23.9375H35.9375Z" fill="#EDEDF0"/>
</g>
<defs>
<clipPath id="clip0_162_2193">
<rect width="50" height="50" fill="white" transform="translate(0 0.5)"/>
</clipPath>
</defs>
</svg>
