<svg width="36" height="36" viewBox="0 0 36 36" fill="none" xmlns="http://www.w3.org/2000/svg">
<g clip-path="url(#clip0_417_2549)">
<path d="M18 0C8.05887 0 0 8.05887 0 18C0 27.9411 8.05887 36 18 36C27.9411 36 36 27.9411 36 18C36 8.05887 27.9411 0 18 0ZM21.9837 10.3051C24.1225 10.2717 26.0568 11.4345 26.9738 13.4168C27.822 16.0375 27.1121 18.7036 25.6162 20.7128C24.6289 22.0753 23.4488 23.2503 22.2424 24.277C21.1325 25.3102 18.6482 27.3547 17.9897 27.4115C17.4078 27.3002 16.7546 26.6411 16.2926 26.3024C13.6965 24.329 10.9025 21.9302 9.48558 19.3062C8.29755 16.7871 8.29539 13.6703 10.1444 11.739C12.5419 9.57756 16.1561 10.0006 17.9897 12.2587C18.4822 11.6199 19.0879 11.1168 19.8066 10.7507C20.535 10.46 21.2707 10.3162 21.9837 10.3051Z" fill="#201F2E" fill-opacity="0.1"/>
</g>
<defs>
<clipPath id="clip0_417_2549">
<rect width="36" height="36" fill="white"/>
</clipPath>
</defs>
</svg>
