<svg width="108" height="108" fill="none" xmlns="http://www.w3.org/2000/svg"><path d="M54 58.5a13.5 13.5 0 019.36 23.229L54.765 90H67.5v9h-27v-7.758l16.618-15.998A4.5 4.5 0 1049.5 72h-9A13.5 13.5 0 0154 58.5zm27 0v18h9v-18h9V99h-9V85.5H72v-27h9zM18 54a35.933 35.933 0 0013.5 28.107v10.872A44.978 44.978 0 019 54h9zM54 9c23.332 0 42.52 17.762 44.775 40.5h-9.054a36.005 36.005 0 00-63.329-18.608L36 40.5H9v-27l11.012 11.007A44.91 44.91 0 0154 9z" fill="url(#paint0_linear_162_2281)"/><path d="M54 58.5a13.5 13.5 0 019.36 23.229L54.767 90H67.5v9h-27v-7.758l16.618-15.998A4.5 4.5 0 1049.501 72h-9A13.5 13.5 0 0154 58.5zm27 0v18h9v-18h9V99h-9V85.5H72v-27h9zM18 54a35.931 35.931 0 0013.5 28.107v10.872A44.976 44.976 0 019 54h9zM54 9c23.333 0 42.521 17.762 44.775 40.5h-9.053a36.005 36.005 0 00-63.329-18.608l9.608 9.608H9v-27l11.011 11.007A44.91 44.91 0 0154.001 9z" fill="url(#paint1_linear_162_2281)"/><path d="M54.006 58.49a13.5 13.5 0 019.36 23.229l-8.595 8.27h12.735v9h-27v-7.757l16.618-15.998a4.5 4.5 0 10-7.618-3.244h-9a13.5 13.5 0 0113.5-13.5zm27 0v18h9v-18h9v40.5h-9v-13.5h-18v-27h9z" fill="#1DA444"/><defs><linearGradient id="paint0_linear_162_2281" x1="9" y1="53.118" x2="99" y2="53.118" gradientUnits="userSpaceOnUse"><stop stop-color="#383552"/><stop offset="1" stop-color="#646087"/></linearGradient><linearGradient id="paint1_linear_162_2281" x1="9" y1="53.118" x2="99.001" y2="53.118" gradientUnits="userSpaceOnUse"><stop stop-color="#383552"/><stop offset="1" stop-color="#646087"/></linearGradient></defs></svg>