<svg width="84" height="108" fill="none" xmlns="http://www.w3.org/2000/svg"><path d="M42 25.718A41.141 41.141 0 1142 108a41.141 41.141 0 010-82.282zm0 10.285a30.856 30.856 0 100 61.712 30.856 30.856 0 000-61.712zm0 7.714L48.803 57.5l15.207 2.21-11.005 10.723 2.597 15.15L42 78.43l-13.602 7.148 2.597-15.145-11.006-10.727 15.207-2.212L42 43.717zM72.856.005v15.428l-7.01 5.852a51.092 51.092 0 00-18.704-5.6V.005h25.714zM36.857 0v15.685A51.091 51.091 0 0018.16 21.28l-7.015-5.847V.005L36.857 0z" fill="url(#paint0_linear_169_2301)"/><path d="M72.996.005v15.428l-7.01 5.852a51.092 51.092 0 00-18.703-5.6V.005h25.713zM36.998 0v15.685a51.09 51.09 0 00-18.699 5.595l-7.014-5.847V.005L36.998 0z" fill="#1DA444"/><defs><linearGradient id="paint0_linear_169_2301" x1=".859" y1="52.941" x2="83.141" y2="52.941" gradientUnits="userSpaceOnUse"><stop stop-color="#383552"/><stop offset="1" stop-color="#646087"/></linearGradient></defs></svg>