<svg width="122" height="108" fill="none" xmlns="http://www.w3.org/2000/svg"><g clip-path="url(#clip0_162_2265)"><path d="M60.791 4.907c-1.64-6.547-10.935-6.547-12.582 0l-.479 1.93a6.48 6.48 0 01-10.948 2.93l-1.384-1.424C30.707 3.49 22.654 8.14 24.51 14.627l.54 1.917a6.48 6.48 0 01-8.005 8.012l-1.917-.546c-6.48-1.857-11.138 6.196-6.285 10.887l1.425 1.384a6.48 6.48 0 01-2.93 10.949l-1.93.479c-6.548 1.64-6.548 10.935 0 12.582l1.93.48a6.479 6.479 0 012.93 10.948l-1.425 1.384c-4.853 4.69-.202 12.744 6.285 10.887l1.917-.54a6.48 6.48 0 018.012 8.013l-.547 1.91c-1.856 6.48 6.197 11.137 10.888 6.284l1.384-1.424a6.48 6.48 0 0110.948 2.929l.48 1.931c1.64 6.547 10.934 6.547 12.581 0l.48-1.931a6.478 6.478 0 018.02-4.672 6.48 6.48 0 012.928 1.743l1.384 1.424c4.691 4.853 12.744.203 10.888-6.284l-.54-1.917a6.481 6.481 0 018.012-8.013l1.91.547c6.48 1.857 11.138-6.196 6.284-10.887l-1.424-1.384a6.48 6.48 0 012.93-10.949l1.93-.479c6.548-1.64 6.548-10.935 0-12.582l-1.93-.48a6.481 6.481 0 01-2.93-10.948l1.424-1.383c4.854-4.692.203-12.745-6.284-10.888l-1.917.54a6.48 6.48 0 01-8.012-8.006l.547-1.917c1.856-6.48-6.197-11.137-10.888-6.284l-1.384 1.424a6.48 6.48 0 01-10.948-2.93l-.48-1.93zm-6.29 82.823a33.739 33.739 0 01-34.214-33.733A33.738 33.738 0 0154.5 20.264a33.736 33.736 0 110 67.473v-.007z" fill="url(#paint0_linear_162_2265)"/></g><path d="M104.942 70.052c-9.145 0-16.558 7.414-16.558 16.558s7.414 16.558 16.558 16.558S121.5 95.754 121.5 86.61s-7.414-16.558-16.558-16.558zm-3.85 26.493l-.011-.011-.009.01-7.72-7.947 3.88-3.954 3.85 3.965 11.59-11.932 3.861 3.973-15.441 15.896z" fill="#1DA444"/><defs><linearGradient id="paint0_linear_162_2265" x1=".497" y1="52.941" x2="108.504" y2="52.941" gradientUnits="userSpaceOnUse"><stop stop-color="#383552"/><stop offset="1" stop-color="#646087"/></linearGradient><clipPath id="clip0_162_2265"><path fill="#fff" transform="translate(.5)" d="M0 0h108v108H0z"/></clipPath></defs></svg>