<svg width="108" height="103" fill="none" xmlns="http://www.w3.org/2000/svg"><path d="M102.6 49.788C102.6 20.142 79.596 0 54 0 28.674 0 5.4 19.71 5.4 50.112A10.626 10.626 0 000 59.4v10.8C0 76.14 4.86 81 10.8 81h5.4V48.06c0-20.898 16.902-37.8 37.8-37.8 20.898 0 37.8 16.902 37.8 37.8V86.4H48.6v10.8h43.2c5.94 0 10.8-4.86 10.8-10.8v-6.588c3.186-1.674 5.4-4.968 5.4-8.856v-12.42c0-3.78-2.214-7.074-5.4-8.748z" fill="url(#paint0_linear_169_2289)"/><path d="M37.625 59.125a5.375 5.375 0 100-10.75 5.375 5.375 0 000 10.75z" fill="url(#paint1_linear_169_2289)"/><path d="M69.875 59.125a5.375 5.375 0 100-10.75 5.375 5.375 0 000 10.75z" fill="url(#paint2_linear_169_2289)"/><path d="M86 43.161a32.465 32.465 0 00-31.98-27.036c-16.286 0-33.809 13.491-32.411 34.669A43.403 43.403 0 0047.73 19.135C54.772 33.271 69.23 43 86 43.161z" fill="url(#paint3_linear_169_2289)"/><path d="M31.5 74C23.492 74 17 80.492 17 88.5S23.492 103 31.5 103 46 96.508 46 88.5 39.508 74 31.5 74zm3.949 5.797a4.76 4.76 0 011.623.28l-2.887 2.886.797 2.055 2.055.797 2.886-2.887a4.743 4.743 0 01-6.067 6.07l-8.208 8.205-2.851-2.851 8.206-8.208a4.74 4.74 0 014.446-6.347zM25.038 93.778a.837.837 0 101.184 0 .87.87 0 00-1.184 0z" fill="#1DA444"/><defs><linearGradient id="paint0_linear_169_2289" x1="0" y1="47.647" x2="108" y2="47.647" gradientUnits="userSpaceOnUse"><stop stop-color="#383552"/><stop offset="1" stop-color="#646087"/></linearGradient><linearGradient id="paint1_linear_169_2289" x1="32.25" y1="53.645" x2="43" y2="53.645" gradientUnits="userSpaceOnUse"><stop stop-color="#383552"/><stop offset="1" stop-color="#646087"/></linearGradient><linearGradient id="paint2_linear_169_2289" x1="64.5" y1="53.645" x2="75.25" y2="53.645" gradientUnits="userSpaceOnUse"><stop stop-color="#383552"/><stop offset="1" stop-color="#646087"/></linearGradient><linearGradient id="paint3_linear_169_2289" x1="21.529" y1="33.12" x2="86" y2="33.12" gradientUnits="userSpaceOnUse"><stop stop-color="#383552"/><stop offset="1" stop-color="#646087"/></linearGradient></defs></svg>