<svg width="10" height="10" fill="none" xmlns="http://www.w3.org/2000/svg"><g clip-path="url(#clip0_202_2915)"><path d="M9.844 5A4.843 4.843 0 11.157 5a4.843 4.843 0 019.687 0zM5.13 1.758c-1.064 0-1.743.448-2.276 1.245a.235.235 0 00.053.318l.677.513a.234.234 0 00.326-.041c.349-.442.588-.7 1.12-.7.398 0 .892.258.892.645 0 .292-.242.442-.636.663-.46.258-1.067.578-1.067 1.38v.078c0 .13.105.235.234.235h1.094c.13 0 .234-.105.234-.235v-.026c0-.556 1.625-.579 1.625-2.083 0-1.133-1.175-1.992-2.276-1.992zM5 6.602a.9.9 0 000 1.796.9.9 0 000-1.796z" fill="#3B3856"/></g><defs><clipPath id="clip0_202_2915"><path fill="#fff" d="M0 0h10v10H0z"/></clipPath></defs></svg>