<svg width="122" height="108" viewBox="0 0 122 108" fill="none" xmlns="http://www.w3.org/2000/svg">
<g clip-path="url(#clip0_162_2265)">
<path d="M60.7915 4.90721C59.1512 -1.64029 49.8564 -1.64029 48.2094 4.90721L47.7302 6.83771C47.4498 7.95961 46.8743 8.98603 46.0633 9.81046C45.2524 10.6349 44.2356 11.2273 43.1185 11.5262C42.0014 11.8251 40.8247 11.8196 39.7104 11.5103C38.5961 11.201 37.5849 10.5992 36.7817 9.76721L35.3979 8.34296C30.7067 3.48971 22.6539 8.14046 24.5102 14.6272L25.0502 16.5442C25.3675 17.6549 25.3822 18.8302 25.0926 19.9485C24.8031 21.0667 24.2199 22.0872 23.4035 22.9044C22.587 23.7215 21.567 24.3055 20.449 24.596C19.331 24.8865 18.1556 24.8728 17.0447 24.5565L15.1277 24.0097C8.6477 22.1535 3.9902 30.2062 8.84345 34.8975L10.2677 36.2812C11.0997 37.0844 11.7015 38.0956 12.0108 39.2099C12.3201 40.3242 12.3256 41.5009 12.0267 42.618C11.7278 43.7352 11.1354 44.7519 10.3109 45.5629C9.48651 46.3738 8.46009 46.9493 7.3382 47.2297L5.4077 47.709C-1.1398 49.3492 -1.1398 58.644 5.4077 60.291L7.3382 60.7702C8.46009 61.0506 9.48651 61.6261 10.3109 62.4371C11.1354 63.248 11.7278 64.2648 12.0267 65.3819C12.3256 66.499 12.3201 67.6757 12.0108 68.79C11.7015 69.9043 11.0997 70.9155 10.2677 71.7187L8.84345 73.1025C3.9902 77.7937 8.64095 85.8465 15.1277 83.9902L17.0447 83.4502C18.1561 83.1323 19.3323 83.1175 20.4513 83.4073C21.5703 83.697 22.5915 84.2809 23.4089 85.0983C24.2263 85.9157 24.8101 86.9368 25.0999 88.0559C25.3897 89.1749 25.3749 90.3511 25.0569 91.4625L24.5102 93.3727C22.6539 99.8527 30.7067 104.51 35.3979 99.657L36.7817 98.2327C37.5849 97.4008 38.5961 96.7989 39.7104 96.4896C40.8247 96.1803 42.0014 96.1748 43.1185 96.4737C44.2356 96.7726 45.2524 97.365 46.0633 98.1895C46.8743 99.0139 47.4498 100.04 47.7302 101.162L48.2094 103.093C49.8497 109.64 59.1444 109.64 60.7915 103.093L61.2707 101.162C61.5511 100.04 62.1266 99.0139 62.9376 98.1895C63.7485 97.365 64.7653 96.7726 65.8824 96.4737C66.9995 96.1748 68.1762 96.1803 69.2905 96.4896C70.4048 96.7989 71.416 97.4008 72.2192 98.2327L73.603 99.657C78.2942 104.51 86.3469 99.8595 84.4907 93.3727L83.9507 91.4557C83.6328 90.3443 83.618 89.1681 83.9077 88.0491C84.1975 86.9301 84.7814 85.9089 85.5988 85.0915C86.4162 84.2741 87.4373 83.6903 88.5563 83.4005C89.6754 83.1107 90.8516 83.1256 91.963 83.4435L93.8732 83.9902C100.353 85.8465 105.011 77.7937 100.157 73.1025L98.7332 71.7187C97.9013 70.9155 97.2994 69.9043 96.9901 68.79C96.6808 67.6757 96.6753 66.499 96.9742 65.3819C97.2731 64.2648 97.8655 63.248 98.6899 62.4371C99.5144 61.6261 100.541 61.0506 101.663 60.7702L103.593 60.291C110.141 58.6507 110.141 49.356 103.593 47.709L101.663 47.2297C100.541 46.9493 99.5144 46.3738 98.6899 45.5629C97.8655 44.7519 97.2731 43.7352 96.9742 42.618C96.6753 41.5009 96.6808 40.3242 96.9901 39.2099C97.2994 38.0956 97.9013 37.0844 98.7332 36.2812L100.157 34.8975C105.011 30.2062 100.36 22.1535 93.8732 24.0097L91.9562 24.5497C90.8455 24.867 89.6702 24.8817 88.552 24.5921C87.4337 24.3026 86.4132 23.7194 85.596 22.903C84.7789 22.0865 84.1949 21.0665 83.9044 19.9485C83.6139 18.8305 83.6276 17.6552 83.944 16.5442L84.4907 14.6272C86.3469 8.14721 78.2942 3.48971 73.603 8.34296L72.2192 9.76721C71.416 10.5992 70.4048 11.201 69.2905 11.5103C68.1762 11.8196 66.9995 11.8251 65.8824 11.5262C64.7653 11.2273 63.7485 10.6349 62.9376 9.81046C62.1266 8.98603 61.5511 7.95961 61.2707 6.83771L60.7915 4.90721ZM54.5004 87.7297C50.0304 87.7929 45.5924 86.9671 41.4442 85.3003C37.2961 83.6334 33.5207 81.1587 30.3373 78.02C27.1539 74.8813 24.626 71.1413 22.9006 67.0171C21.1753 62.893 20.2868 58.4671 20.2868 53.9966C20.2868 49.5261 21.1753 45.1002 22.9006 40.976C24.626 36.8519 27.1539 33.1118 30.3373 29.9732C33.5207 26.8345 37.2961 24.3598 41.4442 22.6929C45.5924 21.026 50.0304 20.2002 54.5004 20.2635C63.4479 20.2635 72.0289 23.8178 78.3558 30.1447C84.6826 36.4715 88.237 45.0525 88.237 54C88.237 62.9474 84.6826 71.5285 78.3558 77.8553C72.0289 84.1821 63.4479 87.7365 54.5004 87.7365V87.7297Z" fill="url(#paint0_linear_162_2265)"/>
</g>
<path d="M104.942 70.0522C95.7972 70.0522 88.3843 77.4657 88.3843 86.6101C88.3843 95.7544 95.7978 103.168 104.942 103.168C114.086 103.168 121.5 95.7544 121.5 86.6101C121.5 77.4657 114.086 70.0522 104.942 70.0522ZM101.092 96.5448L101.081 96.5337L101.072 96.5448L93.3516 88.597L97.2311 84.643L101.082 88.6081L112.672 76.6759L116.533 80.6487L101.092 96.5448Z" fill="#1DA444"/>
<defs>
<linearGradient id="paint0_linear_162_2265" x1="0.49707" y1="52.9411" x2="108.504" y2="52.9411" gradientUnits="userSpaceOnUse">
<stop stop-color="#383552"/>
<stop offset="1" stop-color="#646087"/>
</linearGradient>
<clipPath id="clip0_162_2265">
<rect width="108" height="108" fill="white" transform="translate(0.500488)"/>
</clipPath>
</defs>
</svg>
