<svg width="108" height="103" viewBox="0 0 108 103" fill="none" xmlns="http://www.w3.org/2000/svg">
<path d="M102.6 49.788C102.6 20.142 79.596 0 54 0C28.674 0 5.4 19.71 5.4 50.112C2.16 51.948 0 55.404 0 59.4V70.2C0 76.14 4.86 81 10.8 81H16.2V48.06C16.2 27.162 33.102 10.26 54 10.26C74.898 10.26 91.8 27.162 91.8 48.06V86.4H48.6V97.2H91.8C97.74 97.2 102.6 92.34 102.6 86.4V79.812C105.786 78.138 108 74.844 108 70.956V58.536C108 54.756 105.786 51.462 102.6 49.788Z" fill="url(#paint0_linear_169_2289)"/>
<path d="M37.625 59.125C40.5935 59.125 43 56.7185 43 53.75C43 50.7815 40.5935 48.375 37.625 48.375C34.6565 48.375 32.25 50.7815 32.25 53.75C32.25 56.7185 34.6565 59.125 37.625 59.125Z" fill="url(#paint1_linear_169_2289)"/>
<path d="M69.875 59.125C72.8435 59.125 75.25 56.7185 75.25 53.75C75.25 50.7815 72.8435 48.375 69.875 48.375C66.9065 48.375 64.5 50.7815 64.5 53.75C64.5 56.7185 66.9065 59.125 69.875 59.125Z" fill="url(#paint2_linear_169_2289)"/>
<path d="M86.0003 43.1613C84.7186 35.6047 80.8048 28.7453 74.9517 23.7972C69.0985 18.849 61.6834 16.1313 54.019 16.125C37.7328 16.125 20.2103 29.6163 21.6078 50.7938C28.2359 48.0815 34.0898 43.7712 38.6477 38.2473C43.2057 32.7234 46.3259 26.1575 47.7303 19.135C54.7715 33.2713 69.2303 43 86.0003 43.1613Z" fill="url(#paint3_linear_169_2289)"/>
<path d="M31.5 74C23.4919 74 17 80.4919 17 88.5C17 96.5081 23.4919 103 31.5 103C39.5081 103 46 96.5081 46 88.5C46 80.4919 39.5081 74 31.5 74ZM35.4489 79.7968C35.9982 79.7953 36.5489 79.8883 37.072 80.0765L34.1851 82.9634L34.9816 85.0183L37.0366 85.8148L39.9235 82.928C40.5258 84.6019 40.1567 86.5482 38.8155 87.8894C37.4743 89.2306 35.5297 89.5997 33.8559 88.9974L25.6483 97.2032L22.7968 94.3517L31.0026 86.1441C30.4003 84.4703 30.7695 82.5257 32.1107 81.1845C33.0327 80.2624 34.2404 79.8002 35.4489 79.7968ZM25.0377 93.7782C24.7104 94.1055 24.7104 94.6351 25.0377 94.9623C25.3649 95.2896 25.8945 95.2896 26.2218 94.9623C26.5491 94.635 26.5491 94.1055 26.2218 93.7782C25.8671 93.4557 25.3433 93.4817 25.0377 93.7782Z" fill="#1DA444"/>
<defs>
<linearGradient id="paint0_linear_169_2289" x1="0" y1="47.6471" x2="108" y2="47.6471" gradientUnits="userSpaceOnUse">
<stop stop-color="#383552"/>
<stop offset="1" stop-color="#646087"/>
</linearGradient>
<linearGradient id="paint1_linear_169_2289" x1="32.25" y1="53.6446" x2="43" y2="53.6446" gradientUnits="userSpaceOnUse">
<stop stop-color="#383552"/>
<stop offset="1" stop-color="#646087"/>
</linearGradient>
<linearGradient id="paint2_linear_169_2289" x1="64.5" y1="53.6446" x2="75.25" y2="53.6446" gradientUnits="userSpaceOnUse">
<stop stop-color="#383552"/>
<stop offset="1" stop-color="#646087"/>
</linearGradient>
<linearGradient id="paint3_linear_169_2289" x1="21.5293" y1="33.1195" x2="86.0003" y2="33.1195" gradientUnits="userSpaceOnUse">
<stop stop-color="#383552"/>
<stop offset="1" stop-color="#646087"/>
</linearGradient>
</defs>
</svg>
