<svg width="108" height="108" viewBox="0 0 108 108" fill="none" xmlns="http://www.w3.org/2000/svg">
<path d="M54 58.5C56.6924 58.4999 59.3233 59.3048 61.5547 60.8113C63.7861 62.3179 65.5161 64.4572 66.5224 66.9545C67.5286 69.4517 67.7652 72.1928 67.2017 74.8256C66.6382 77.4583 65.3003 79.8624 63.36 81.729L54.765 90H67.5V99H40.5V91.242L57.1185 75.2445C57.6547 74.7291 58.0548 74.0888 58.283 73.3809C58.5112 72.6729 58.5603 71.9195 58.4261 71.188C58.2918 70.4564 57.9783 69.7695 57.5136 69.1888C57.0489 68.608 56.4475 68.1515 55.7632 67.8601C55.0789 67.5687 54.333 67.4514 53.5923 67.5188C52.8516 67.5862 52.1391 67.8361 51.5186 68.2463C50.8981 68.6564 50.389 69.2139 50.0367 69.869C49.6845 70.5241 49.5001 71.2562 49.5 72H40.5C40.5 68.4196 41.9223 64.9858 44.4541 62.4541C46.9858 59.9223 50.4196 58.5 54 58.5ZM81 58.5V76.5H90V58.5H99V99H90V85.5H72V58.5H81ZM18 54C17.9945 59.3982 19.2052 64.7282 21.5424 69.5942C23.8796 74.4601 27.283 78.737 31.5 82.107V92.979C24.6565 89.0305 18.9738 83.349 15.0239 76.5062C11.074 69.6635 8.99634 61.901 9 54H18ZM54 9.00002C77.3325 9.00002 96.5205 26.7615 98.775 49.5H89.721C88.8442 42.5477 85.9578 36.0023 81.4155 30.6664C76.8732 25.3305 70.8726 21.4361 64.1494 19.4607C57.4262 17.4852 50.2727 17.5146 43.5659 19.5453C36.8592 21.5759 30.8908 25.5195 26.3925 30.8925L36 40.5H9V13.5L20.0115 24.507C24.232 19.6343 29.452 15.7274 35.3168 13.0516C41.1816 10.3758 47.5537 8.99401 54 9.00002Z" fill="url(#paint0_linear_162_2281)"/>
<path d="M54.0005 58.5C56.6929 58.4999 59.3238 59.3048 61.5552 60.8113C63.7866 62.3179 65.5166 64.4572 66.5229 66.9545C67.5291 69.4517 67.7657 72.1928 67.2022 74.8256C66.6387 77.4583 65.3008 79.8624 63.3605 81.729L54.7655 90H67.5005V99H40.5005V91.242L57.119 75.2445C57.6552 74.7291 58.0553 74.0888 58.2835 73.3809C58.5117 72.6729 58.5608 71.9195 58.4266 71.188C58.2923 70.4564 57.9788 69.7695 57.5141 69.1888C57.0494 68.608 56.448 68.1515 55.7637 67.8601C55.0794 67.5687 54.3335 67.4514 53.5928 67.5188C52.8521 67.5862 52.1396 67.8361 51.5191 68.2463C50.8986 68.6564 50.3895 69.2139 50.0372 69.869C49.6849 70.5241 49.5005 71.2562 49.5005 72H40.5005C40.5005 68.4196 41.9228 64.9858 44.4546 62.4541C46.9863 59.9223 50.4201 58.5 54.0005 58.5ZM81.0005 58.5V76.5H90.0005V58.5H99.0005V99H90.0005V85.5H72.0005V58.5H81.0005ZM18.0005 54C17.9949 59.3982 19.2057 64.7282 21.5429 69.5942C23.88 74.4601 27.2835 78.737 31.5005 82.107V92.979C24.6569 89.0305 18.9742 83.349 15.0244 76.5062C11.0745 69.6635 8.99683 61.901 9.00049 54H18.0005ZM54.0005 9.00002C77.333 9.00002 96.521 26.7615 98.7755 49.5H89.7215C88.8447 42.5477 85.9583 36.0023 81.416 30.6664C76.8737 25.3305 70.8731 21.4361 64.1499 19.4607C57.4267 17.4852 50.2731 17.5146 43.5664 19.5453C36.8597 21.5759 30.8913 25.5195 26.393 30.8925L36.0005 40.5H9.00049V13.5L20.012 24.507C24.2325 19.6343 29.4525 15.7274 35.3173 13.0516C41.1821 10.3758 47.5541 8.99401 54.0005 9.00002Z" fill="url(#paint1_linear_162_2281)"/>
<path d="M54.0059 58.4897C56.6982 58.4896 59.3292 59.2945 61.5606 60.8011C63.792 62.3076 65.522 64.4469 66.5282 66.9442C67.5345 69.4415 67.7711 72.1826 67.2076 74.8153C66.644 77.4481 65.3062 79.8522 63.3659 81.7187L54.7709 89.9897H67.5059V98.9897H40.5059V91.2317L57.1244 75.2342C57.6606 74.7188 58.0607 74.0785 58.2889 73.3706C58.517 72.6627 58.5662 71.9092 58.4319 71.1777C58.2977 70.4461 57.9842 69.7592 57.5195 69.1785C57.0548 68.5978 56.4534 68.1413 55.769 67.8498C55.0847 67.5584 54.3389 67.4411 53.5981 67.5085C52.8574 67.5759 52.145 67.8259 51.5245 68.236C50.904 68.6461 50.3948 69.2037 50.0426 69.8587C49.6903 70.5138 49.5059 71.246 49.5059 71.9897H40.5059C40.5059 68.4093 41.9282 64.9755 44.4599 62.4438C46.9917 59.9121 50.4254 58.4897 54.0059 58.4897ZM81.0059 58.4897V76.4897H90.0059V58.4897H99.0059V98.9897H90.0059V85.4897H72.0059V58.4897H81.0059Z" fill="#1DA444"/>
<defs>
<linearGradient id="paint0_linear_162_2281" x1="9" y1="53.1177" x2="99" y2="53.1177" gradientUnits="userSpaceOnUse">
<stop stop-color="#383552"/>
<stop offset="1" stop-color="#646087"/>
</linearGradient>
<linearGradient id="paint1_linear_162_2281" x1="9.00049" y1="53.1177" x2="99.0005" y2="53.1177" gradientUnits="userSpaceOnUse">
<stop stop-color="#383552"/>
<stop offset="1" stop-color="#646087"/>
</linearGradient>
</defs>
</svg>
