<svg width="84" height="108" viewBox="0 0 84 108" fill="none" xmlns="http://www.w3.org/2000/svg">
<path d="M41.9998 25.7182C52.911 25.7182 63.3754 30.0527 71.0908 37.7681C78.8062 45.4835 83.1407 55.9479 83.1407 66.8591C83.1407 77.7704 78.8062 88.2347 71.0908 95.9501C63.3754 103.666 52.911 108 41.9998 108C31.0885 108 20.6242 103.666 12.9088 95.9501C5.19336 88.2347 0.858887 77.7704 0.858887 66.8591C0.858887 55.9479 5.19336 45.4835 12.9088 37.7681C20.6242 30.0527 31.0885 25.7182 41.9998 25.7182ZM41.9998 36.0034C33.8164 36.0034 25.9681 39.2543 20.1815 45.0409C14.395 50.8274 11.1441 58.6757 11.1441 66.8591C11.1441 75.0425 14.395 82.8908 20.1815 88.6774C25.9681 94.4639 33.8164 97.7148 41.9998 97.7148C50.1832 97.7148 58.0315 94.4639 63.818 88.6774C69.6046 82.8908 72.8555 75.0425 72.8555 66.8591C72.8555 58.6757 69.6046 50.8274 63.818 45.0409C58.0315 39.2543 50.1832 36.0034 41.9998 36.0034ZM41.9998 43.7174L48.8035 57.4996L64.0102 59.7109L53.005 70.4332L55.602 85.5834L41.9998 78.43L28.3976 85.5782L30.9946 70.4332L19.9894 59.7057L35.1961 57.4944L41.9998 43.7174ZM72.8555 0.00514285V15.433L65.8461 21.2853C60.0295 18.2336 53.679 16.3321 47.1424 15.685V0.00514285H72.8555ZM36.8572 0V15.685C30.3227 16.3311 23.974 18.2308 18.1586 21.2801L11.1441 15.433V0.00514285L36.8572 0Z" fill="url(#paint0_linear_169_2301)"/>
<path d="M72.9961 0.00514285V15.433L65.9867 21.2853C60.1701 18.2336 53.8196 16.3321 47.283 15.685V0.00514285H72.9961ZM36.9978 0V15.685C30.4633 16.3311 24.1146 18.2308 18.2993 21.2801L11.2847 15.433V0.00514285L36.9978 0Z" fill="#1DA444"/>
<defs>
<linearGradient id="paint0_linear_169_2301" x1="0.858887" y1="52.9412" x2="83.1407" y2="52.9412" gradientUnits="userSpaceOnUse">
<stop stop-color="#383552"/>
<stop offset="1" stop-color="#646087"/>
</linearGradient>
</defs>
</svg>
