<svg width="11" height="12" viewBox="0 0 11 12" fill="none" xmlns="http://www.w3.org/2000/svg">
<path d="M5.5 0.720703C4.04131 0.720703 2.64236 1.30017 1.61091 2.33162C0.579463 3.36307 0 4.76201 0 6.2207C0 7.67939 0.579463 9.07834 1.61091 10.1098C2.64236 11.1412 4.04131 11.7207 5.5 11.7207C6.95869 11.7207 8.35764 11.1412 9.38909 10.1098C10.4205 9.07834 11 7.67939 11 6.2207C11 4.76201 10.4205 3.36307 9.38909 2.33162C8.35764 1.30017 6.95869 0.720703 5.5 0.720703ZM8.63565 8.22493L7.50357 9.35701L5.5 7.35279L3.49577 9.35636L2.36369 8.22427L4.36857 6.2207L2.36435 4.21648L3.49643 3.08505L5.5 5.08862L7.50423 3.08439L8.63631 4.21648L6.63143 6.2207L8.63565 8.22493Z" fill="#CDCCD0"/>
</svg>
