<svg width="8" height="8" viewBox="0 0 8 8" fill="none" xmlns="http://www.w3.org/2000/svg">
<path fill-rule="evenodd" clip-rule="evenodd" d="M7.99992 4.00014C7.99992 4.13275 7.94724 4.25993 7.85347 4.3537C7.7597 4.44747 7.63253 4.50014 7.49992 4.50014H1.70692L3.85392 6.64614C3.90041 6.69263 3.93728 6.74782 3.96244 6.80856C3.9876 6.8693 4.00055 6.9344 4.00055 7.00014C4.00055 7.06589 3.9876 7.13099 3.96244 7.19173C3.93728 7.25247 3.90041 7.30766 3.85392 7.35414C3.80743 7.40063 3.75224 7.43751 3.6915 7.46267C3.63076 7.48783 3.56566 7.50077 3.49992 7.50077C3.43417 7.50077 3.36907 7.48783 3.30833 7.46267C3.24759 7.43751 3.19241 7.40063 3.14592 7.35414L0.145917 4.35414C0.0993539 4.3077 0.062411 4.25252 0.0372045 4.19178C0.0119981 4.13103 -0.000976563 4.06591 -0.000976562 4.00014C-0.000976563 3.93438 0.0119981 3.86926 0.0372045 3.80851C0.062411 3.74776 0.0993539 3.69259 0.145917 3.64614L3.14592 0.646143C3.2398 0.552257 3.36714 0.499512 3.49992 0.499512C3.63269 0.499512 3.76003 0.552257 3.85392 0.646143C3.9478 0.74003 4.00055 0.867368 4.00055 1.00014C4.00055 1.13292 3.9478 1.26026 3.85392 1.35414L1.70692 3.50014H7.49992C7.63253 3.50014 7.7597 3.55282 7.85347 3.64659C7.94724 3.74036 7.99992 3.86754 7.99992 4.00014Z" fill="#383552"/>
</svg>
