<svg width="50" height="51" fill="none" xmlns="http://www.w3.org/2000/svg"><g clip-path="url(#clip0_162_2193)"><path d="M25 .5a25 25 0 100 50 25 25 0 000-50zm10.938 23.438a1.563 1.563 0 010 3.125H17.834l6.71 6.706a1.566 1.566 0 01-1.705 2.551 1.566 1.566 0 01-.508-.339l-9.375-9.375a1.564 1.564 0 010-2.212l9.375-9.375a1.565 1.565 0 012.213 2.212l-6.71 6.706h18.104z" fill="#EDEDF0"/></g><defs><clipPath id="clip0_162_2193"><path fill="#fff" transform="translate(0 .5)" d="M0 0h50v50H0z"/></clipPath></defs></svg>