<svg width="36" height="36" fill="none" xmlns="http://www.w3.org/2000/svg"><g clip-path="url(#clip0_417_2549)"><path d="M18 0C8.059 0 0 8.059 0 18s8.059 18 18 18 18-8.059 18-18S27.941 0 18 0zm3.984 10.305c2.138-.033 4.073 1.13 4.99 3.112.848 2.62.138 5.287-1.358 7.296-.987 1.362-2.167 2.537-3.374 3.564-1.11 1.033-3.594 3.078-4.252 3.134-.582-.11-1.235-.77-1.697-1.109-2.596-1.973-5.39-4.372-6.807-6.996-1.188-2.519-1.19-5.636.658-7.567 2.398-2.161 6.012-1.738 7.846.52a5.312 5.312 0 011.817-1.508 6.125 6.125 0 012.177-.446z" fill="#201F2E" fill-opacity=".1"/></g><defs><clipPath id="clip0_417_2549"><path fill="#fff" d="M0 0h36v36H0z"/></clipPath></defs></svg>