<svg width="50" height="51" fill="none" xmlns="http://www.w3.org/2000/svg"><g clip-path="url(#clip0_162_2200)"><path d="M25 .5a25 25 0 110 50 25 25 0 010-50zM14.062 23.938a1.563 1.563 0 000 3.125h18.104l-6.71 6.706a1.566 1.566 0 001.705 2.551c.19-.078.362-.194.508-.339l9.375-9.375a1.564 1.564 0 000-2.212l-9.375-9.375a1.566 1.566 0 00-2.552 1.705c.079.19.194.362.34.507l6.709 6.706H14.063z" fill="#EDEDF0"/></g><defs><clipPath id="clip0_162_2200"><path fill="#fff" transform="translate(0 .5)" d="M0 0h50v50H0z"/></clipPath></defs></svg>