<svg width="17" height="21" fill="none" xmlns="http://www.w3.org/2000/svg"><path d="M8.077 21a34.554 34.554 0 01-4.039-4.119C2.192 14.652 0 11.333 0 8.17c0-1.615.473-3.195 1.36-4.538A8.097 8.097 0 014.986.62 7.996 7.996 0 019.654.158a8.05 8.05 0 014.137 2.237 8.117 8.117 0 011.753 2.648c.406.992.613 2.054.61 3.127 0 3.164-2.193 6.483-4.039 8.712A34.56 34.56 0 018.077 21zm0-16.33c-.918 0-1.799.369-2.448 1.025a3.519 3.519 0 00-1.014 2.474c0 .928.365 1.818 1.014 2.475a3.443 3.443 0 002.448 1.024c.918 0 1.798-.368 2.448-1.024a3.52 3.52 0 001.013-2.475c0-.928-.364-1.818-1.013-2.474A3.443 3.443 0 008.077 4.67z" fill="#fff"/></svg>