<svg width="31" height="31" fill="none" xmlns="http://www.w3.org/2000/svg"><g clip-path="url(#clip0_162_2027)"><path d="M15.5.62C7.282.62.62 7.282.62 15.5S7.282 30.38 15.5 30.38s14.88-6.662 14.88-14.88S23.718.62 15.5.62zm5.723 16.788s1.316 1.3 1.64 1.902c.009.012.014.025.017.031.131.222.162.394.097.522-.108.214-.48.32-.607.329h-2.325c-.162 0-.5-.042-.909-.324-.314-.22-.624-.581-.927-.933-.45-.524-.841-.977-1.235-.977-.05 0-.1.008-.147.024-.298.096-.679.52-.679 1.652 0 .353-.279.556-.476.556h-1.065c-.362 0-2.252-.127-3.926-1.892-2.049-2.162-3.893-6.5-3.909-6.54-.116-.28.124-.43.386-.43h2.348c.313 0 .416.19.487.36.084.196.39.979.894 1.86.817 1.434 1.318 2.017 1.72 2.017a.45.45 0 00.215-.056c.524-.291.426-2.159.403-2.546 0-.073-.002-.836-.27-1.201-.192-.266-.52-.366-.718-.404.08-.11.187-.2.309-.261.36-.18 1.007-.207 1.65-.207h.359c.697.01.877.055 1.13.118.511.123.522.453.477 1.583-.014.32-.028.683-.028 1.111 0 .093-.005.192-.005.298-.015.575-.034 1.227.372 1.495a.338.338 0 00.177.052c.141 0 .566 0 1.716-1.974a15.06 15.06 0 00.922-1.974c.024-.04.092-.165.172-.213a.412.412 0 01.192-.044h2.761c.3 0 .507.044.546.16.068.185-.013.748-1.273 2.454l-.563.743c-1.142 1.497-1.142 1.573.072 2.71z" fill="#C8C6D3"/></g><defs><clipPath id="clip0_162_2027"><path fill="#fff" d="M0 0h31v31H0z"/></clipPath></defs></svg>