<svg width="31" height="31" fill="none" xmlns="http://www.w3.org/2000/svg"><g clip-path="url(#clip0_162_2029)"><path d="M17.985 15.241l-3.481-1.624c-.304-.141-.554.017-.554.353v3.06c0 .336.25.494.554.353l3.48-1.624c.305-.143.305-.375 0-.518zM15.5.621C7.282.62.62 7.281.62 15.5c0 8.217 6.662 14.88 14.88 14.88s14.88-6.663 14.88-14.88C30.38 7.281 23.718.62 15.5.62zm0 20.924c-7.617 0-7.75-.687-7.75-6.045s.133-6.045 7.75-6.045 7.75.687 7.75 6.045-.133 6.045-7.75 6.045z" fill="#C8C6D3"/></g><defs><clipPath id="clip0_162_2029"><path fill="#fff" d="M0 0h31v31H0z"/></clipPath></defs></svg>