<svg width="17" height="18" viewBox="0 0 17 18" fill="none" xmlns="http://www.w3.org/2000/svg">
<path d="M3.4375 0.75C2.52582 0.75 1.65148 1.11216 1.00682 1.75682C0.362164 2.40148 0 3.27582 0 4.1875V13.8125C0 14.7242 0.362164 15.5985 1.00682 16.2432C1.65148 16.8878 2.52582 17.25 3.4375 17.25H13.0625C13.9742 17.25 14.8485 16.8878 15.4932 16.2432C16.1378 15.5985 16.5 14.7242 16.5 13.8125V4.1875C16.5 3.27582 16.1378 2.40148 15.4932 1.75682C14.8485 1.11216 13.9742 0.75 13.0625 0.75H3.4375ZM1.375 4.1875C1.375 3.64049 1.5923 3.11589 1.97909 2.72909C2.36589 2.3423 2.89049 2.125 3.4375 2.125H13.0625C13.6095 2.125 14.1341 2.3423 14.5209 2.72909C14.9077 3.11589 15.125 3.64049 15.125 4.1875V13.8125C15.125 14.3595 14.9077 14.8841 14.5209 15.2709C14.1341 15.6577 13.6095 15.875 13.0625 15.875H3.4375C2.89049 15.875 2.36589 15.6577 1.97909 15.2709C1.5923 14.8841 1.375 14.3595 1.375 13.8125V4.1875Z" fill="#EEECF3"/>
</svg>
