<svg width="17" height="18" viewBox="0 0 17 18" fill="none" xmlns="http://www.w3.org/2000/svg">
<path d="M3.4375 0.75C2.52582 0.75 1.65148 1.11216 1.00682 1.75682C0.362164 2.40148 0 3.27582 0 4.1875V13.8125C0 14.7242 0.362164 15.5985 1.00682 16.2432C1.65148 16.8878 2.52582 17.25 3.4375 17.25H13.0625C13.9742 17.25 14.8485 16.8878 15.4932 16.2432C16.1378 15.5985 16.5 14.7242 16.5 13.8125V4.1875C16.5 3.27582 16.1378 2.40148 15.4932 1.75682C14.8485 1.11216 13.9742 0.75 13.0625 0.75H3.4375ZM12.1742 7.42425L7.36175 12.2367C7.29789 12.3008 7.22202 12.3516 7.1385 12.3862C7.05497 12.4209 6.96543 12.4387 6.875 12.4387C6.78457 12.4387 6.69503 12.4209 6.6115 12.3862C6.52798 12.3516 6.45211 12.3008 6.38825 12.2367L4.32575 10.1742C4.26183 10.1103 4.21112 10.0344 4.17653 9.95093C4.14194 9.86741 4.12413 9.7779 4.12413 9.6875C4.12413 9.5971 4.14194 9.50759 4.17653 9.42407C4.21112 9.34056 4.26183 9.26467 4.32575 9.20075C4.45484 9.07166 4.62993 8.99913 4.8125 8.99913C4.9029 8.99913 4.99241 9.01694 5.07593 9.05153C5.15944 9.08612 5.23533 9.13683 5.29925 9.20075L6.875 10.7779L11.2008 6.45075C11.3298 6.32166 11.5049 6.24913 11.6875 6.24913C11.8701 6.24913 12.0452 6.32166 12.1742 6.45075C12.3033 6.57984 12.3759 6.75493 12.3759 6.9375C12.3759 7.12007 12.3033 7.29516 12.1742 7.42425Z" fill="#383552"/>
</svg>
