<svg width="16" height="19" viewBox="0 0 16 19" fill="none" xmlns="http://www.w3.org/2000/svg">
<path d="M5 2.49952C4.73478 2.49952 4.48043 2.60488 4.29289 2.79241C4.10536 2.97995 4 3.2343 4 3.49952C4 3.76474 4.10536 4.01909 4.29289 4.20663C4.48043 4.39416 4.73478 4.49952 5 4.49952C5.26522 4.49952 5.51957 4.39416 5.70711 4.20663C5.89464 4.01909 6 3.76474 6 3.49952C6 3.2343 5.89464 2.97995 5.70711 2.79241C5.51957 2.60488 5.26522 2.49952 5 2.49952ZM2.17 2.49952C2.3766 1.91399 2.75974 1.40695 3.2666 1.04831C3.77346 0.689666 4.37909 0.49707 5 0.49707C5.62091 0.49707 6.22654 0.689666 6.7334 1.04831C7.24026 1.40695 7.6234 1.91399 7.83 2.49952H15C15.2652 2.49952 15.5196 2.60488 15.7071 2.79241C15.8946 2.97995 16 3.2343 16 3.49952C16 3.76474 15.8946 4.01909 15.7071 4.20663C15.5196 4.39416 15.2652 4.49952 15 4.49952H7.83C7.6234 5.08505 7.24026 5.59209 6.7334 5.95073C6.22654 6.30938 5.62091 6.50197 5 6.50197C4.37909 6.50197 3.77346 6.30938 3.2666 5.95073C2.75974 5.59209 2.3766 5.08505 2.17 4.49952H1C0.734784 4.49952 0.48043 4.39416 0.292893 4.20663C0.105357 4.01909 0 3.76474 0 3.49952C0 3.2343 0.105357 2.97995 0.292893 2.79241C0.48043 2.60488 0.734784 2.49952 1 2.49952H2.17ZM11 8.49952C10.7348 8.49952 10.4804 8.60488 10.2929 8.79241C10.1054 8.97995 10 9.2343 10 9.49952C10 9.76474 10.1054 10.0191 10.2929 10.2066C10.4804 10.3942 10.7348 10.4995 11 10.4995C11.2652 10.4995 11.5196 10.3942 11.7071 10.2066C11.8946 10.0191 12 9.76474 12 9.49952C12 9.2343 11.8946 8.97995 11.7071 8.79241C11.5196 8.60488 11.2652 8.49952 11 8.49952ZM8.17 8.49952C8.3766 7.91399 8.75974 7.40695 9.2666 7.04831C9.77346 6.68967 10.3791 6.49707 11 6.49707C11.6209 6.49707 12.2265 6.68967 12.7334 7.04831C13.2403 7.40695 13.6234 7.91399 13.83 8.49952H15C15.2652 8.49952 15.5196 8.60488 15.7071 8.79241C15.8946 8.97995 16 9.2343 16 9.49952C16 9.76474 15.8946 10.0191 15.7071 10.2066C15.5196 10.3942 15.2652 10.4995 15 10.4995H13.83C13.6234 11.0851 13.2403 11.5921 12.7334 11.9507C12.2265 12.3094 11.6209 12.502 11 12.502C10.3791 12.502 9.77346 12.3094 9.2666 11.9507C8.75974 11.5921 8.3766 11.0851 8.17 10.4995H1C0.734784 10.4995 0.48043 10.3942 0.292893 10.2066C0.105357 10.0191 0 9.76474 0 9.49952C0 9.2343 0.105357 8.97995 0.292893 8.79241C0.48043 8.60488 0.734784 8.49952 1 8.49952H8.17ZM5 14.4995C4.73478 14.4995 4.48043 14.6049 4.29289 14.7924C4.10536 14.9799 4 15.2343 4 15.4995C4 15.7647 4.10536 16.0191 4.29289 16.2066C4.48043 16.3942 4.73478 16.4995 5 16.4995C5.26522 16.4995 5.51957 16.3942 5.70711 16.2066C5.89464 16.0191 6 15.7647 6 15.4995C6 15.2343 5.89464 14.9799 5.70711 14.7924C5.51957 14.6049 5.26522 14.4995 5 14.4995ZM2.17 14.4995C2.3766 13.914 2.75974 13.407 3.2666 13.0483C3.77346 12.6897 4.37909 12.4971 5 12.4971C5.62091 12.4971 6.22654 12.6897 6.7334 13.0483C7.24026 13.407 7.6234 13.914 7.83 14.4995H15C15.2652 14.4995 15.5196 14.6049 15.7071 14.7924C15.8946 14.9799 16 15.2343 16 15.4995C16 15.7647 15.8946 16.0191 15.7071 16.2066C15.5196 16.3942 15.2652 16.4995 15 16.4995H7.83C7.6234 17.0851 7.24026 17.5921 6.7334 17.9507C6.22654 18.3094 5.62091 18.502 5 18.502C4.37909 18.502 3.77346 18.3094 3.2666 17.9507C2.75974 17.5921 2.3766 17.0851 2.17 16.4995H1C0.734784 16.4995 0.48043 16.3942 0.292893 16.2066C0.105357 16.0191 0 15.7647 0 15.4995C0 15.2343 0.105357 14.9799 0.292893 14.7924C0.48043 14.6049 0.734784 14.4995 1 14.4995H2.17Z" fill="#201F2E" fill-opacity="0.1"/>
</svg>
