<svg width="18" height="18" viewBox="0 0 18 18" fill="none" xmlns="http://www.w3.org/2000/svg">
<path d="M8.75 0C3.91797 0 0 3.91797 0 8.75C0 13.582 3.91797 17.5 8.75 17.5C13.582 17.5 17.5 13.582 17.5 8.75C17.5 3.91797 13.582 0 8.75 0ZM12.5 9.21875C12.5 9.30469 12.4297 9.375 12.3438 9.375H9.375V12.3438C9.375 12.4297 9.30469 12.5 9.21875 12.5H8.28125C8.19531 12.5 8.125 12.4297 8.125 12.3438V9.375H5.15625C5.07031 9.375 5 9.30469 5 9.21875V8.28125C5 8.19531 5.07031 8.125 5.15625 8.125H8.125V5.15625C8.125 5.07031 8.19531 5 8.28125 5H9.21875C9.30469 5 9.375 5.07031 9.375 5.15625V8.125H12.3438C12.4297 8.125 12.5 8.19531 12.5 8.28125V9.21875Z" fill="#CDCCD0"/>
</svg>
