<svg width="28" height="28" viewBox="0 0 28 28" fill="none" xmlns="http://www.w3.org/2000/svg">
<rect width="28" height="28" rx="10" fill="#383552"/>
<path d="M17.9807 12.4895C17.9807 13.4802 17.659 14.3953 17.1172 15.1378L19.8502 17.8725C20.1201 18.1423 20.1201 18.5805 19.8502 18.8503C19.5804 19.1201 19.1421 19.1201 18.8723 18.8503L16.1392 16.1156C15.3966 16.6595 14.4813 16.9789 13.4904 16.9789C11.0099 16.9789 9 14.9695 9 12.4895C9 10.0095 11.0099 8 13.4904 8C15.9708 8 17.9807 10.0095 17.9807 12.4895ZM13.4904 15.5976C15.2066 15.5976 16.5991 14.2054 16.5991 12.4895C16.5991 10.7735 15.2066 9.38138 13.4904 9.38138C11.7741 9.38138 10.3816 10.7735 10.3816 12.4895C10.3816 14.2054 11.7741 15.5976 13.4904 15.5976Z" fill="white"/>
</svg>
