<svg width="38" height="38" fill="none" xmlns="http://www.w3.org/2000/svg"><g clip-path="url(#clip0_162_2671)"><path d="M19.333.667C9.025.667.668 9.023.668 19.33c0 10.309 8.357 18.665 18.665 18.665 10.309 0 18.665-8.356 18.665-18.665C37.998 9.023 29.642.667 19.333.667zm4.131 10.685c2.218-.034 4.224 1.171 5.175 3.227.88 2.718.143 5.482-1.408 7.566-1.024 1.412-2.248 2.63-3.499 3.695-1.15 1.072-3.727 3.192-4.41 3.25-.603-.115-1.28-.798-1.76-1.15-2.691-2.046-5.589-4.533-7.058-7.254-1.232-2.612-1.234-5.844.683-7.847 2.487-2.241 6.234-1.802 8.136.54a5.506 5.506 0 011.884-1.565 6.354 6.354 0 012.257-.462z" fill="#fff" fill-opacity=".4"/></g><defs><clipPath id="clip0_162_2671"><path fill="#fff" transform="translate(.668 .667)" d="M0 0h37.33v37.33H0z"/></clipPath></defs></svg>