<svg width="13" height="21" fill="none" xmlns="http://www.w3.org/2000/svg"><path d="M7.854 18.9c0-.36-.132-.67-.398-.927a1.325 1.325 0 00-.956-.386c-.372 0-.691.129-.956.386a1.245 1.245 0 00-.398.927c0 .36.132.67.398.927.265.257.584.385.956.385s.691-.128.956-.385c.266-.257.398-.566.398-.927zm3.521-2.625V4.725a.497.497 0 00-.16-.37.529.529 0 00-.382-.155H2.167a.529.529 0 00-.381.156.497.497 0 00-.161.369v11.55c0 .142.054.265.16.37a.529.529 0 00.382.155h8.666a.529.529 0 00.381-.156.497.497 0 00.161-.369zM8.125 2.363c0-.175-.09-.263-.27-.263h-2.71c-.18 0-.27.087-.27.262 0 .175.09.263.27.263h2.71c.18 0 .27-.087.27-.263zM13 2.1v16.8c0 .569-.214 1.06-.643 1.477a2.115 2.115 0 01-1.524.623H2.167a2.115 2.115 0 01-1.524-.623C.214 19.96 0 19.469 0 18.9V2.1C0 1.531.214 1.04.643.623A2.115 2.115 0 012.167 0h8.666c.587 0 1.095.208 1.524.623.429.416.643.908.643 1.477z" fill="#383552"/></svg>