<svg width="26" height="26" fill="none" xmlns="http://www.w3.org/2000/svg"><path d="M13 0c7.18 0 13 5.82 13 13s-5.82 13-13 13S0 20.18 0 13 5.82 0 13 0zm4.672 5.164c-.268-.016-.51.144-.694.428l-1.777 3.37a.98.98 0 00.198 1.113l.815.814c.05.07.083.147.084.232-.313 1.208-1.26 2.323-2.095 3.09-.836.766-1.734 1.804-2.9 2.05-.144.04-.32.055-.423-.041l-.946-.963c-.326-.248-.799-.368-1.147-.165H8.77l-3.207 1.893c-.471.295-.52.865-.183 1.212l2.21 2.192c.325.334.759.447 1.18.447 1.862-.056 3.622-.97 5.067-1.909 2.372-1.726 4.548-3.866 5.914-6.452.524-1.085 1.14-2.468 1.081-3.679-.005-.455-.128-.901-.45-1.195l-2.208-2.209c-.172-.146-.342-.219-.503-.228z" fill="#fff"/></svg>