<svg width="9" height="15" fill="none" xmlns="http://www.w3.org/2000/svg"><g clip-path="url(#clip0_227_5648)"><path d="M5.438 13.5a.903.903 0 00-.276-.662.903.903 0 00-.662-.275.903.903 0 00-.662.275.903.903 0 00-.276.662.9.9 0 00.276.662.903.903 0 00.662.275.903.903 0 00.662-.275.903.903 0 00.276-.662zm2.437-1.875v-8.25a.36.36 0 00-.111-.264A.36.36 0 007.5 3h-6a.36.36 0 00-.264.111.36.36 0 00-.111.264v8.25c0 .102.037.19.111.264A.36.36 0 001.5 12h6a.36.36 0 00.264-.111.36.36 0 00.111-.264zm-2.25-9.938c0-.125-.063-.187-.188-.187H3.563c-.124 0-.187.063-.187.188s.063.187.188.187h1.874c.125 0 .188-.063.188-.188zM9 1.5v12c0 .406-.148.758-.445 1.055A1.441 1.441 0 017.5 15h-6c-.406 0-.758-.148-1.055-.445A1.442 1.442 0 010 13.5v-12C0 1.094.148.742.445.445A1.442 1.442 0 011.5 0h6c.406 0 .758.148 1.055.445C8.852.742 9 1.094 9 1.5z" fill="#AAA8B4"/></g><defs><clipPath id="clip0_227_5648"><path fill="#fff" d="M0 0h9v15H0z"/></clipPath></defs></svg>