<svg width="38" height="38" fill="none" xmlns="http://www.w3.org/2000/svg"><path d="M19.333.663C9.025.663.667 9.021.667 19.33c0 10.308 8.358 18.666 18.666 18.666C29.642 37.996 38 29.638 38 19.33 38 9.02 29.642.663 19.333.663zm8 19.667c0 .183-.15.333-.333.333h-6.333v6.333c0 .184-.15.334-.334.334h-2a.334.334 0 01-.333-.334v-6.333h-6.333a.334.334 0 01-.334-.333v-2c0-.184.15-.334.334-.334H18v-6.333c0-.183.15-.333.333-.333h2c.184 0 .334.15.334.333v6.333H27c.183 0 .333.15.333.334v2z" fill="#fff" fill-opacity=".4"/></svg>