<svg width="38" height="38" fill="none" xmlns="http://www.w3.org/2000/svg"><g clip-path="url(#clip0_162_2673)"><path fill-rule="evenodd" clip-rule="evenodd" d="M38 19.33c0 10.308-8.358 18.666-18.667 18.666C9.025 37.996.667 29.638.667 19.33.667 9.02 9.025.663 19.333.663 29.643.663 38 9.021 38 19.33zm-17.998-4.886c-1.815.754-5.444 2.318-10.885 4.688-.884.352-1.348.695-1.39 1.031-.071.57.641.794 1.609 1.097.132.042.269.084.409.13.954.31 2.235.673 2.901.687.605.012 1.28-.237 2.025-.747 5.084-3.433 7.708-5.167 7.873-5.205.117-.026.279-.06.387.038.11.096.098.28.087.33-.071.3-2.862 2.896-4.308 4.24-.451.418-.77.715-.836.784-.146.15-.295.295-.438.434-.887.852-1.55 1.493.037 2.538.762.503 1.372.918 1.98 1.332.664.453 1.327.904 2.186 1.467.218.143.426.29.63.436.773.552 1.468 1.046 2.327.969.498-.047 1.014-.515 1.275-1.914.618-3.307 1.834-10.469 2.116-13.421a3.286 3.286 0 00-.031-.734.787.787 0 00-.268-.506c-.222-.182-.567-.22-.723-.218-.702.013-1.778.388-6.963 2.544z" fill="#fff" fill-opacity=".4"/></g><defs><clipPath id="clip0_162_2673"><path fill="#fff" transform="translate(.667 .663)" d="M0 0h37.333v37.333H0z"/></clipPath></defs></svg>