<svg width="12" height="12" fill="none" xmlns="http://www.w3.org/2000/svg"><path fill-rule="evenodd" clip-rule="evenodd" d="M6 .167a5.833 5.833 0 00-4.994 8.848l-.52 1.769a.589.589 0 00.73.731l1.77-.52A5.833 5.833 0 106 .167zM4.68 7.32C5.86 8.5 6.988 8.656 7.386 8.67c.605.022 1.194-.44 1.423-.976a.406.406 0 00-.051-.41c-.32-.408-.752-.702-1.174-.993a.415.415 0 00-.568.092l-.35.534a.134.134 0 01-.178.044 4.256 4.256 0 01-.832-.615 3.796 3.796 0 01-.587-.801.132.132 0 01.039-.17l.539-.4a.415.415 0 00.07-.549c-.261-.382-.566-.869-1.007-1.191a.405.405 0 00-.4-.044c-.536.23-1 .819-.978 1.425.014.398.17 1.524 1.35 2.704z" fill="#A9A8B4"/></svg>